<svg width="2544" height="32" viewBox="0 0 2544 32" fill="none" xmlns="http://www.w3.org/2000/svg">
<path d="M81.126 16.002H65.1055V32H49.0801V16.002H65.1006V0.00292969H81.126V16.002ZM97.1504 32H81.126V16.002H97.1504V32ZM162.248 32H146.224V16.002H162.248V32ZM194.302 32H178.276V16.002H194.302V32ZM259.407 32H243.382V16.002H259.407V32ZM291.46 32H275.436V16.002H291.46V32ZM372.578 16.002H356.558V32H340.533V16.002H356.553V0.00292969H372.578V16.002ZM388.604 32H372.578V16.002H388.604V32ZM421.655 32H404.629V16.002H421.655V32ZM453.709 32H437.684V16.002H453.709V32ZM518.814 32H502.789V16.002H518.814V32ZM566.888 16.002H550.867V32H534.842V16.002H550.862V0.00292969H566.888V16.002ZM582.912 32H566.888V16.002H582.912V32ZM681.062 32H665.037V16.002H681.062V32ZM713.115 32H697.091V16.002H713.115V32ZM778.221 32H762.196V16.002H778.221V32ZM794.246 16.002H810.267V32H794.241V16.002H778.221V0.00292969H794.246V16.002ZM875.364 32H859.339V16.002H875.364V32ZM907.417 32H891.393V16.002H907.417V32ZM972.522 32H956.498V16.002H972.522V32ZM1004.58 32H988.551V16.002H1004.58V32ZM1053.65 16.002H1037.63V32H1020.6V16.002H1037.62V0.00292969H1053.65V16.002ZM1069.67 32H1053.65V16.002H1069.67V32ZM1134.77 32H1118.75V16.002H1134.77V32ZM1166.82 32H1150.8V16.002H1166.82V32ZM1198.88 32H1182.85V16.002H1198.88V32ZM1345.13 16.002H1329.11V32H1313.08V16.002H1329.1V0.00292969H1345.13V16.002ZM1361.15 32H1345.13V16.002H1361.15V32ZM1426.25 32H1410.22V16.002H1426.25V32ZM1458.3 32H1442.28V16.002H1458.3V32ZM1523.41 32H1507.38V16.002H1523.41V32ZM1555.46 32H1539.44V16.002H1555.46V32ZM1636.58 16.002H1620.56V32H1604.53V16.002H1620.55V0.00292969H1636.58V16.002ZM1652.6 32H1636.58V16.002H1652.6V32ZM1685.66 32H1668.63V16.002H1685.66V32ZM1717.71 32H1701.68V16.002H1717.71V32ZM1782.81 32H1766.79V16.002H1782.81V32ZM1830.89 16.002H1814.87V32H1798.84V16.002H1814.86V0.00292969H1830.89V16.002ZM1846.91 32H1830.89V16.002H1846.91V32ZM1945.06 32H1929.04V16.002H1945.06V32ZM1977.12 32H1961.09V16.002H1977.12V32ZM2042.22 32H2026.2V16.002H2042.22V32ZM2058.25 16.002H2074.27V32H2058.24V16.002H2042.22V0.00292969H2058.25V16.002ZM2139.36 32H2123.34V16.002H2139.36V32ZM2171.42 32H2155.39V16.002H2171.42V32ZM2236.52 32H2220.5V16.002H2236.52V32ZM2268.58 32H2252.55V16.002H2268.58V32ZM2317.65 16.002H2301.63V32H2284.6V16.002H2301.62V0.00292969H2317.65V16.002ZM2333.67 32H2317.65V16.002H2333.67V32ZM2398.77 32H2382.75V16.002H2398.77V32ZM2430.82 32H2414.8V16.002H2430.82V32ZM2462.88 32H2446.85V16.002H2462.88V32ZM32.0518 31.998H16.0264V16H32.0518V31.998ZM129.202 31.998H113.178V16H129.202V31.998ZM227.354 31.998H210.328V16H227.354V31.998ZM324.506 31.998H307.479V16H324.506V31.998ZM485.76 31.998H469.735V16H485.76V31.998ZM615.963 31.998H599.938V16H615.963V31.998ZM648.017 31.998H631.991V16H648.017V31.998ZM745.159 31.998H729.135V16H745.159V31.998ZM843.319 31.998H826.293V16H843.319V31.998ZM940.471 31.998H923.443V16H940.471V31.998ZM1101.72 31.998H1085.7V16H1101.72V31.998ZM1231.93 31.998H1215.9V16H1231.93V31.998ZM1263.97 31.998H1247.95V16H1263.97V31.998ZM1296.05 31.998H1280.03V16H1296.05V31.998ZM1393.2 31.998H1377.18V16H1393.2V31.998ZM1491.35 31.998H1474.33V16H1491.35V31.998ZM1588.51 31.998H1571.48V16H1588.51V31.998ZM1749.76 31.998H1733.74V16H1749.76V31.998ZM1879.96 31.998H1863.94V16H1879.96V31.998ZM1912.02 31.998H1895.99V16H1912.02V31.998ZM2009.16 31.998H1993.13V16H2009.16V31.998ZM2107.32 31.998H2090.29V16H2107.32V31.998ZM2204.47 31.998H2187.44V16H2204.47V31.998ZM2365.72 31.998H2349.7V16H2365.72V31.998ZM2495.93 31.998H2479.9V16H2495.93V31.998ZM2527.97 31.998H2511.95V16H2527.97V31.998ZM178.273 16.002H162.248V0.00292969H178.273V16.002ZM275.432 16.002H259.407V0.00292969H275.432V16.002ZM437.684 16.002H421.658V0.00292969H437.684V16.002ZM534.839 16.002H518.814V0.00292969H534.839V16.002ZM697.088 16.002H681.062V0.00292969H697.088V16.002ZM891.39 16.002H875.364V0.00292969H891.39V16.002ZM988.548 16.002H972.522V0.00292969H988.548V16.002ZM1150.8 16.002H1134.77V0.00292969H1150.8V16.002ZM1182.85 16.002H1166.83V0.00292969H1182.85V16.002ZM1442.27 16.002H1426.25V0.00292969H1442.27V16.002ZM1539.43 16.002H1523.41V0.00292969H1539.43V16.002ZM1701.68 16.002H1685.66V0.00292969H1701.68V16.002ZM1798.84 16.002H1782.81V0.00292969H1798.84V16.002ZM1961.09 16.002H1945.06V0.00292969H1961.09V16.002ZM2155.39 16.002H2139.36V0.00292969H2155.39V16.002ZM2252.55 16.002H2236.52V0.00292969H2252.55V16.002ZM2414.8 16.002H2398.77V0.00292969H2414.8V16.002ZM2446.85 16.002H2430.83V0.00292969H2446.85V16.002ZM16.0254 15.998H0V0H16.0254V15.998ZM49.0801 15.998H32.0527V0H49.0801V15.998ZM113.176 15.998H97.1504V0H113.176V15.998ZM146.23 15.998H129.204V0H146.23V15.998ZM210.326 15.998H194.302V0H210.326V15.998ZM243.379 15.998H227.354V0H243.379V15.998ZM307.485 15.998H291.46V0H307.485V15.998ZM340.537 15.998H324.513V0H340.537V15.998ZM404.628 15.998H388.604V0H404.628V15.998ZM469.733 15.998H453.709V0H469.733V15.998ZM502.788 15.998H485.762V0H502.788V15.998ZM599.939 15.998H582.912V0H599.939V15.998ZM631.99 15.998H615.965V0H631.99V15.998ZM665.037 15.998H648.01V0H665.037V15.998ZM729.141 15.998H713.115V0H729.141V15.998ZM762.195 15.998H745.169V0H762.195V15.998ZM826.291 15.998H810.267V0H826.291V15.998ZM859.344 15.998H843.318V0H859.344V15.998ZM923.442 15.998H907.417V0H923.442V15.998ZM956.494 15.998H940.47V0H956.494V15.998ZM1020.6 15.998H1004.58V0H1020.6V15.998ZM1085.7 15.998H1069.67V0H1085.7V15.998ZM1118.75 15.998H1101.72V0H1118.75V15.998ZM1215.9 15.998H1198.88V0H1215.9V15.998ZM1247.96 15.998H1231.93V0H1247.96V15.998ZM1280 15.998H1263.97V0H1280V15.998ZM1313.08 15.998H1296.05V0H1313.08V15.998ZM1377.18 15.998H1361.15V0H1377.18V15.998ZM1410.23 15.998H1393.2V0H1410.23V15.998ZM1474.33 15.998H1458.3V0H1474.33V15.998ZM1507.38 15.998H1491.35V0H1507.38V15.998ZM1571.49 15.998H1555.46V0H1571.49V15.998ZM1604.54 15.998H1588.51V0H1604.54V15.998ZM1668.63 15.998H1652.6V0H1668.63V15.998ZM1733.73 15.998H1717.71V0H1733.73V15.998ZM1766.79 15.998H1749.76V0H1766.79V15.998ZM1863.94 15.998H1846.91V0H1863.94V15.998ZM1895.99 15.998H1879.96V0H1895.99V15.998ZM1929.04 15.998H1912.01V0H1929.04V15.998ZM1993.14 15.998H1977.12V0H1993.14V15.998ZM2026.2 15.998H2009.17V0H2026.2V15.998ZM2090.29 15.998H2074.27V0H2090.29V15.998ZM2123.34 15.998H2107.32V0H2123.34V15.998ZM2187.44 15.998H2171.42V0H2187.44V15.998ZM2220.49 15.998H2204.47V0H2220.49V15.998ZM2284.6 15.998H2268.58V0H2284.6V15.998ZM2349.7 15.998H2333.67V0H2349.7V15.998ZM2382.75 15.998H2365.72V0H2382.75V15.998ZM2479.9 15.998H2462.88V0H2479.9V15.998ZM2511.96 15.998H2495.93V0H2511.96V15.998ZM2544 15.998H2527.97V0H2544V15.998Z" fill="black"/>
</svg>
