<svg width="535" height="827" viewBox="0 0 535 827" fill="none" xmlns="http://www.w3.org/2000/svg">
<g opacity="0.8">
<path fill-rule="evenodd" clip-rule="evenodd" d="M389.947 250.568C389.926 249.54 389.967 248.51 390.007 247.505C390.045 246.548 390.083 245.612 390.064 244.722C390.079 245.42 390.094 246.131 390.109 246.856C390.112 246.997 390.115 247.138 390.118 247.28C390.122 247.446 390.125 247.613 390.129 247.781C390.138 248.215 390.089 248.678 390.04 249.146C389.989 249.623 389.938 250.106 389.947 250.568Z" fill="#0077FF"/>
<path d="M32.2539 136.908C39.1239 141.276 53.1428 146.391 61.0717 147.423C61.0717 138.74 68.7214 138.326 72.7853 138.106C74.2551 138.026 75.2559 137.972 75.2559 137.561C75.2559 137.052 74.0802 136.374 72.5813 135.511C69.5292 133.753 65.137 131.223 66.6001 127.765C68.4496 123.394 77.2933 123.57 80.0154 123.694C77.6899 123.063 70.6667 119.363 65.658 109.49C62.5651 103.392 55.1155 88.1188 54.1713 78.835C52.2882 60.3223 51.2048 49.0242 47.3649 47.4388C46.3957 47.0401 42.3274 47.3607 40.7066 47.3607C39.0859 47.3607 37.9212 45.9754 37.2664 45.2713C35.9514 43.8573 30.8217 45.7147 30.8217 47.4388C30.8217 48.0368 29.8881 48.0869 28.1297 48.0869C26.29 48.0869 24.0015 49.3401 23.428 50.4417C22.6074 52.0189 22.6412 51.4489 19.9547 50.4417C17.3746 49.4741 15.5639 50.2785 14.2738 51.6657C12.8211 53.2266 13.9485 53.0004 11.2989 51.1341C8.39458 49.0871 6.64601 49.2865 4.80519 51.731C2.23368 55.1453 0.78856 81.5115 2.64456 91.1286C6.17876 109.43 20.1357 129.204 32.2539 136.908Z" fill="#FF3985"/>
<path d="M76.2286 109.85C77.5935 112.234 77.9076 114.938 77.2679 116.007C78.5819 114.455 79.6218 113.716 81.0264 112.813C87.4412 109.756 93.0637 114.911 95.7408 117.366C96.6761 118.224 97.2518 118.751 97.3764 118.484C97.4923 118.236 97.3456 117.239 97.1398 115.84C96.4921 111.437 95.2583 103.051 99.7808 101.47C103.957 100.011 106.942 106.428 108.867 110.566C109.738 112.438 110.392 113.844 110.841 113.844C111.318 113.844 111.689 112.606 112.181 110.966C113.179 107.643 114.671 102.672 118.535 103.017C121.625 103.293 121.553 106.081 121.479 108.929C121.414 111.399 121.349 113.914 123.344 114.875C123.344 114.875 129.114 105.595 135.366 107.657L134.824 96.9327C136.459 84.2929 136.227 63.7518 134.309 51.4407C133.409 45.6704 131.971 35.179 131.113 28.1264C128.524 6.87542 125.899 0.862662 119.884 2.4084C118.302 2.81523 115.398 3.34913 113.428 3.59626C111.459 3.84339 109.173 4.64774 108.348 5.38447C107.218 6.39281 106.261 6.38465 104.461 5.34833C101.895 3.87185 96.4012 3.19741 91.1249 2.698C88.3169 2.43222 86.7118 2.49145 83.9117 2.4084C77.6695 2.22295 73.6902 1.97307 71.4699 3.73169C67.996 6.48332 68.0534 14.5744 67.2868 37.2668C66.4326 62.5395 66.5464 68.0416 68.1422 78.7406C70.2898 93.1372 73.3069 104.745 76.2286 109.85Z" fill="#FF3985"/>
<path d="M158.122 60.44C152.369 89.5025 149.131 98.2966 141.143 106.549L138.156 109.425C140.306 112.063 138.156 115.907 138.156 115.907C138.337 116.074 139.076 115.888 140.094 115.632C142.323 115.072 145.888 114.175 147.869 115.907C152.65 120.086 146.727 125.386 143.473 128.298C142.312 129.337 141.491 130.072 141.617 130.343C141.799 130.732 142.808 130.605 144.118 130.439C146.618 130.123 150.214 129.668 151.235 132.405C152.314 135.297 150.529 137.394 148.754 138.678C151.521 137.401 155.556 135.929 159.289 134.887C170.588 131.733 189.01 122.066 198.975 114.061C211.11 104.312 219.517 90.9002 227.729 68.1839C234.551 49.3121 236.176 39.048 233.528 31.5583C232.569 28.8491 231.98 28.5227 229.15 29.1313C226.81 29.6337 225.704 29.3423 225.262 28.1066C224.441 25.8031 219.479 25.9092 216.307 28.2978C213.941 30.079 213.687 30.079 212.759 28.2978C211.685 26.2333 206.876 25.753 204.368 27.4596C203.375 28.1357 201.956 27.8909 200.363 26.7672C199.005 25.8113 196.77 25.1748 195.395 25.352C194.02 25.5304 191.831 25.0478 190.529 24.2784C187.414 22.44 184.703 22.5648 182.119 24.6666C179.465 26.8243 178.261 26.8383 178.261 24.712C178.261 23.7969 177.513 22.2419 176.598 21.2592C175.271 19.8323 174.395 19.7344 172.276 20.7719C166.733 23.488 163.824 31.6434 158.122 60.44Z" fill="#FF3985"/>
<path d="M328.952 174.109C334.02 176.746 339.109 179.226 340.259 179.622C340.992 179.873 342.13 181.113 342.144 181.386C343.683 181.386 345.442 181.505 347.17 181.622C351.668 181.927 355.956 182.217 355.609 180.355C355.465 179.582 353.655 178.346 351.432 176.828C346.238 173.28 338.784 168.189 345.029 163.856C352.103 158.948 361.873 166.368 365.851 169.389C366.888 170.177 367.531 170.665 367.631 170.559C367.752 170.429 367.507 169.744 367.135 168.743L367.059 168.538C365.93 165.507 363.854 159.932 366.669 157.669C370.516 154.576 375.953 156.022 375.953 156.022C370.757 152.859 353.741 129.753 347.639 116.721C344.145 109.258 335.72 83.4384 331.042 65.8583C322.232 32.7508 317.787 22.8807 311.691 22.8807C310.054 22.8807 308.392 23.2281 307.997 23.6524C306.896 24.8368 291.05 25.0617 290.383 23.9019C289.445 22.2699 284.892 22.7222 283.45 24.5896C282.711 25.5478 280.513 26.2333 278.447 26.1494C276.361 26.0654 273.899 26.8406 272.772 27.9376C270.294 30.3494 268.899 30.3821 267.112 28.067C266.337 27.0633 264.475 26.4151 262.922 26.6098C258.085 27.2172 256.843 31.922 256.981 49.1093C257.099 63.7984 257.253 64.7473 261.982 80.0007C267.416 97.5272 274.544 113.632 282.434 126.204C285.317 130.797 294.889 142.377 303.707 151.935C318.221 167.671 320.609 169.768 328.952 174.109Z" fill="#FF3985"/>
<path d="M395.397 1.29281C393.882 2.45503 391.989 2.85837 390.25 2.38858C388.737 1.98058 386.644 2.03071 385.599 2.50166C382.161 4.04973 364.805 3.7956 364.231 2.18925C363.391 -0.166664 358.789 0.51761 356.297 3.36895C350.129 10.4297 346.426 25.2238 345.576 46.195C345.037 59.5203 345.305 63.9873 347.325 75.3379C350.264 91.8572 352.227 97.3571 366.557 129.21C372.82 143.132 377.702 155.197 377.408 156.022C377.229 156.521 376.72 156.489 375.953 156.022C375.953 156.022 380.614 161.278 381.095 161.278C381.186 161.278 381.198 160.838 381.218 160.118C381.304 157.016 381.534 148.71 388.789 147.873C393.487 147.331 396.792 153.98 398.847 158.112C399.74 159.909 400.397 161.231 400.829 161.278C401.253 161.325 402.16 160.085 403.386 158.41C406.28 154.455 410.951 148.073 415.238 150.451C419.423 152.772 418.586 161.153 418.201 164.999C418.087 166.144 418.013 166.888 418.123 166.95C418.233 167.011 418.773 166.612 419.598 166.003C422.387 163.943 428.428 159.482 432.069 162.309C436.66 165.876 431.913 172.695 429.449 176.234C428.558 177.513 427.966 178.364 428.221 178.477C429.183 178.903 436.463 177.284 436.463 177.284L441.521 175.048C460.313 166.74 480.614 148.132 499.942 121.498C516.107 99.2257 524.857 82.4825 531.076 61.9321C536.623 43.5954 535.696 28.7093 529.006 28.7093C527.567 28.7093 526.058 28.1346 525.654 27.4316C525.25 26.7287 523.513 26.3755 521.794 26.6471C519.7 26.977 518.076 26.4373 516.875 25.0105C515.807 23.741 513.589 22.8807 511.385 22.8807C509.351 22.8807 506.712 22.3188 505.518 21.6322C503.87 20.6833 502.734 20.8162 500.792 22.1848C498.788 23.5964 497.533 23.7223 494.979 22.7653C492.706 21.9131 491.079 21.9155 489.591 22.7711C487.958 23.7107 487.132 23.572 486.052 22.1731C485.085 20.9211 483.641 20.5644 481.446 21.0354C479.688 21.4142 477.71 21.2545 477.049 20.6798C476.389 20.1063 473.231 19.9151 470.03 20.2543C464.437 20.8488 464.136 21.0575 462.282 25.6656C461.219 28.3013 459.795 35.9658 459.115 42.6978C457.346 60.2069 454.979 74.6023 452.315 84.0446C449.285 94.789 441.562 114.582 436.287 125.123C432.114 133.462 423.326 146.895 422.574 146.086C422.358 145.854 422.918 143.087 423.817 139.936C429.494 120.057 431.915 95.7227 431.964 58.0293C432.002 30.1198 430.93 16.4529 428.139 9.27097C425.065 1.36159 424.15 0.849839 413.125 0.877816C407.674 0.891805 401.994 0.575896 400.503 0.178387C398.816 -0.273911 396.89 0.146913 395.397 1.29281Z" fill="#FF3985"/>
<path d="M63.5315 435.071C70.6682 437.52 73.2083 438.948 74.0788 441.003C74.0788 441.003 74.0207 436.047 75.2559 434.023C76.3764 432.187 79.0367 431.413 80.6601 430.941C81.3951 430.727 81.9175 430.575 81.9882 430.414C82.0382 430.3 81.6227 429.937 80.9907 429.383C78.7539 427.425 73.8049 423.091 77.1794 419.071C79.3915 416.436 82.7038 417.099 84.4469 417.448C85.091 417.577 85.5209 417.664 85.6018 417.524C85.6859 417.38 85.5521 417.032 85.3638 416.544C84.8808 415.29 84.0398 413.107 85.6018 411.035C84.5741 411.952 83.2341 411.086 80.3211 407.618C72.8071 398.676 69.9375 390.494 64.9733 363.852C61.476 345.081 55.8408 329.563 50.7195 324.599C47.2362 321.223 43.2174 320.798 40.673 323.534C39.4284 324.872 37.2505 325.967 35.8324 325.967C34.4155 325.967 32.6658 326.731 31.9437 327.666C31.1057 328.751 29.5565 329.134 27.6517 328.724C25.6667 328.297 24.0601 328.741 22.8405 330.052C21.8333 331.135 20.2787 331.721 19.3865 331.352C18.4932 330.984 16.7445 331.778 15.4999 333.116C13.6244 335.133 12.7951 335.333 10.6594 334.286C6.865 332.428 5.15319 333.681 3.18119 339.759C-4.58863 363.712 6.15599 395.55 29.1478 416.701C35.6319 422.666 50.4506 430.583 63.5315 435.071Z" fill="#FF3985"/>
<path fill-rule="evenodd" clip-rule="evenodd" d="M390.064 244.722C390.083 245.612 390.045 246.548 390.007 247.505C389.967 248.51 389.926 249.54 389.947 250.568L389.89 247.88C389.253 217.959 389.09 210.293 385.505 206.423C384.27 205.09 382.629 204.207 380.423 203.02L380.413 203.015C380.229 202.916 380.041 202.815 379.849 202.711C375.883 200.569 372.235 199.935 359.307 199.143C342.172 198.092 336.907 196.42 334.309 191.198C332.482 187.527 333.693 185.092 338.715 182.337C339.84 181.719 340.852 181.644 341.481 181.598C341.903 181.567 342.152 181.548 342.144 181.386C343.683 181.386 345.442 181.505 347.17 181.622C351.668 181.927 355.956 182.217 355.609 180.355C355.465 179.582 353.655 178.346 351.432 176.828C346.238 173.28 338.784 168.189 345.029 163.856C352.103 158.948 361.873 166.368 365.851 169.389C366.888 170.177 367.531 170.665 367.631 170.559C367.752 170.429 367.507 169.744 367.135 168.743L367.059 168.538C365.93 165.507 363.854 159.932 366.669 157.669C370.516 154.576 375.953 156.022 375.953 156.022C375.953 156.022 380.614 161.278 381.095 161.278C381.186 161.278 381.198 160.838 381.218 160.118C381.304 157.016 381.534 148.71 388.789 147.873C393.487 147.331 396.792 153.98 398.847 158.112C399.74 159.909 400.397 161.231 400.829 161.278C401.253 161.325 402.16 160.085 403.386 158.41C406.28 154.455 410.951 148.073 415.238 150.451C419.423 152.772 418.586 161.153 418.201 164.999C418.087 166.144 418.013 166.888 418.123 166.95C418.233 167.011 418.773 166.612 419.598 166.003C422.387 163.943 428.428 159.482 432.069 162.309C436.66 165.876 431.913 172.695 429.449 176.234C428.558 177.513 427.966 178.364 428.221 178.477C429.183 178.903 436.463 177.284 436.463 177.284L439.895 178.477C442.86 179.507 443.372 180.28 443.67 184.166C443.975 188.177 443.492 189.199 439.198 193.624C432.793 200.223 426.524 202.401 413.939 202.401C401.477 202.401 400.082 203.443 400.829 212.199C404.874 259.643 405.378 272.228 405.248 322.469C405.126 369.153 402.551 446 400.922 451.575C400.425 453.273 400.617 453.228 402.073 451.302C404.386 448.244 408.539 433.877 410.671 421.555C412.736 409.628 414.58 380.193 414.614 358.607C414.642 341.532 416.745 317.387 419.336 304.382C425.571 273.084 446.436 233.169 472.033 203.568C485.596 187.883 491.18 179.356 500.271 160.435C504.431 151.78 511.317 139.714 515.574 133.624C519.831 127.533 524.286 120.057 525.473 117.012C532.132 99.9426 534.117 124.181 529.594 167.328C527.97 182.827 527.339 196.269 527.323 215.705C527.293 253.078 525.152 268.876 517.038 291.578C511.428 307.274 506.254 317.438 492.419 339.955C479.099 361.633 464.577 380.703 444.024 403.503C437.081 411.205 429.945 419.86 428.166 422.737C426.387 425.613 420.757 434.262 415.656 441.955C403.118 460.865 398.336 469.594 398.33 473.582C398.322 477.41 394.233 508.455 393.301 511.752C392.045 516.191 395.005 512.272 400.017 502.855C409.354 485.311 415.345 477.364 448.532 438.497C462.932 421.632 466.729 416.214 482.045 390.664C485.889 384.252 493.545 373.761 499.06 367.349C511.244 353.185 517.448 344.442 525.108 330.646C528.316 324.866 531.351 320.138 531.853 320.138C532.354 320.138 532.764 322.106 532.764 324.509C532.763 326.914 533.326 334.481 534.015 341.325C535.158 352.664 535.059 354.952 532.899 367.109C531.316 376.034 530.196 388.703 529.52 405.375C528.938 419.753 527.766 433.997 526.751 439.041C521.873 463.29 507.013 485.981 489.91 495.301C478.982 501.255 460.152 506.258 438.447 508.973C423.938 510.79 409.567 514.34 403.207 517.682C394.514 522.251 386.672 530.283 380.859 540.575C377.95 545.726 375.583 550.298 375.599 550.736C375.617 551.175 378.177 553.201 381.291 555.241C389.864 560.856 406.11 575.659 409.54 580.981C413.066 586.453 418.189 599.508 420.545 609.031C422.849 618.339 433.778 687.753 435.26 702.493C435.937 709.225 436.742 726.209 437.049 740.235C437.389 755.811 437.982 765.114 438.573 764.132C439.104 763.25 440.793 758.33 442.325 753.201L445.11 743.875L445.606 674.515C445.878 636.367 446.574 599.123 447.152 591.75C448.297 577.141 451.05 561.118 455.335 544.144C456.845 538.157 458.664 529.869 459.376 525.726C460.088 521.583 461.133 518.195 461.698 518.198C463.206 518.203 466.168 533.063 468.11 550.367C469.045 558.702 470.338 583.094 470.983 604.573C471.628 626.051 472.595 647.821 473.131 652.95C473.667 658.079 474.141 666.734 474.184 672.184C474.308 688.13 469.201 727.36 465.762 736.881C463.713 742.554 453.556 759.118 444.148 772.13L437.204 781.733L437.951 788.159C438.362 791.693 438.932 794.584 439.219 794.584C439.507 794.584 442.011 792.433 444.786 789.805C447.56 787.175 451.294 784.232 453.083 783.265C459.489 779.8 471.924 768.753 476.326 762.617C489.703 743.973 493.618 722.628 489.962 688.266C488.235 672.038 488.166 666.484 489.265 632.454C491.011 578.372 492.548 552.465 494.445 545.121C496.603 536.765 506.948 515.23 516.563 499.075C520.761 492.023 525.269 483.773 526.582 480.743C529.242 474.607 531.626 473.471 531.535 478.384C531.501 480.146 531.529 494.966 531.595 511.315C531.661 527.664 531.235 544.975 530.648 549.784C528.804 564.876 529.243 663.384 531.252 685.281C533.429 709.009 532.657 773.601 530.036 787.007C528.163 796.586 522.742 805.893 515.663 811.683C509.928 816.372 505.299 817.926 494.664 818.726C486.759 819.321 486.056 819.164 479.486 815.341C475.697 813.136 470.109 809.632 467.067 807.555C460.518 803.081 452.697 801.819 443.817 803.8L437.864 805.129L436.551 811.075C435.828 814.346 434.68 817.743 433.999 818.626C432.202 820.955 429.18 820.592 427.468 817.841C426.649 816.528 425.004 815.399 423.812 815.334C421.354 815.198 407.272 817.369 398.335 819.261C383.169 822.47 380.414 821.864 373.495 813.794C370.68 810.51 368.965 807.239 368.518 804.306C368.144 801.844 366.894 794.274 365.74 787.483C364.587 780.691 363.644 771.386 363.644 766.804C363.644 762.222 362.858 751.088 361.897 742.06C360.19 726.011 360.204 725.309 362.538 710.282C363.852 701.83 365.357 688.399 365.884 680.434C366.409 672.468 368.038 659.354 369.5 651.291C371.602 639.699 372.308 631.145 372.871 610.434C373.799 576.262 375.816 571.403 379.98 593.317C381.155 599.503 383.331 608.106 384.816 612.436C386.302 616.767 389.901 629.49 392.814 640.71C395.728 651.93 399.651 666.618 401.532 673.35L404.954 685.59L405.409 722.893C405.693 746.196 405.422 763.583 404.686 769.224C403.796 776.046 403.835 780.113 404.844 785.868C406.799 797.002 409.37 800.479 417.868 803.468C421.734 804.828 425.026 805.825 425.185 805.683C426.047 804.914 425.303 754.454 424.342 748.538C423.718 744.691 422.744 731.577 422.178 719.395C421.612 707.214 420.169 690.69 418.971 682.675C417.773 674.661 416.779 663.383 416.762 657.613C416.713 640.953 410.488 614.419 401.791 593.795C398.015 584.839 390.009 575.941 377.74 567.066L369.613 561.186L367.441 564.459C366.247 566.26 361.85 571.956 357.67 577.119C353.49 582.28 345.939 591.75 340.889 598.161C335.84 604.573 329.173 612.703 326.076 616.23C322.979 619.756 319.376 623.953 318.071 625.555C313.465 631.209 304.783 645.804 301.5 653.411C298.201 661.057 298.171 661.308 297.123 689.904C296.145 716.546 297.278 760.525 299.307 774.767L299.888 778.847L301.808 774.767C305.147 767.669 305.342 762.786 302.871 748.248C300.142 732.207 300.514 724.529 304.602 712.401C306.115 707.913 308.948 696.897 310.896 687.921C313.433 676.236 314.884 671.601 316.005 671.601C317.687 671.601 317.718 672.446 316.936 697.247C316.714 704.299 316.946 717.938 317.453 727.555C318.083 739.513 317.992 747.253 317.166 752.035C315.584 761.182 309.381 774.612 303.382 781.874C298.862 787.347 298.597 788.051 298.597 794.623C298.597 798.449 298.917 801.578 299.309 801.578C300.514 801.578 314.794 785.2 318.007 780.133C319.675 777.502 322.425 771.678 324.117 767.19C326.762 760.176 327.191 757.476 327.162 747.955C327.145 741.865 326.345 731.373 325.384 724.641C321.397 696.684 321.807 677.096 326.895 652.367C329.649 638.976 340.178 616.871 349.582 604.732C352.878 600.477 356.699 595.029 358.071 592.624C360.398 588.55 362.881 587.083 363.991 589.127C364.251 589.608 363.337 594.165 361.959 599.255C360.581 604.344 358.906 615.098 358.238 623.152C357.569 631.206 356.57 641.205 356.018 645.372C355.465 649.54 354.977 658.458 354.934 665.19C354.853 677.566 354.505 681.806 351.152 711.235C349.611 724.746 349.449 731.469 350.211 750.287C351.528 782.859 351.359 800.206 349.671 805.467C346.739 814.608 338.568 821.396 330.497 821.396C326.045 821.396 322.058 819.604 316.738 815.213C309.534 809.267 299.871 809.446 297.513 815.567C296.718 817.629 295.08 819.383 293.567 819.792C288.203 821.239 288.03 820.243 287.591 785.114L287.181 752.396L283.927 749.269C282.137 747.55 275.116 742.784 268.324 738.68C261.533 734.575 252.76 728.443 248.829 725.053C244.898 721.662 238.289 716.904 234.143 714.478C225.603 709.483 215.025 699.384 207.884 689.404C195.205 671.687 193.008 657.402 198.741 629.947C203.245 608.376 205.743 587.227 204.93 577.54C204.152 568.253 205.405 566.677 208.85 572.612C210.212 574.957 215.872 584.288 221.428 593.348C232.09 610.732 242.706 632.747 246.495 645.332C247.742 649.477 250.022 660.755 251.56 670.395C256.151 699.17 260.974 711.429 273.595 726.404C276.917 730.346 280.852 735.493 282.341 737.841C283.828 740.189 285.474 742.114 285.996 742.119C286.52 742.123 286.632 739.373 286.246 736.007C285.86 732.64 285.278 722.018 284.951 712.401L284.917 711.393C284.706 705.106 284.566 700.933 283.905 696.861C282.6 688.825 279.267 681.184 269.355 658.46L268.552 656.619C258.093 632.638 254.641 619.82 255.6 608.531C257.268 588.933 267.1 576.643 287.756 568.342C295.885 565.075 298.889 564.524 313.233 563.676C322.177 563.145 331.128 562.36 333.124 561.927C338.824 560.695 337.181 564.523 329.871 569.505C322.366 574.619 295.464 599.534 291.667 604.886C286.669 611.934 285.357 617.158 284.428 633.715C283.942 642.371 283.211 651.405 282.803 653.793C282.026 658.333 284.173 676.49 285.599 677.437C286.052 677.737 286.769 674.45 287.194 670.13C288.127 660.656 290.803 651.777 296.941 637.795C302.519 625.086 308.418 616.346 324.074 597.592C346.29 570.98 356.312 557.608 354.748 556.666C350.461 554.088 304.502 550.404 291.008 551.558C286.536 551.942 277.755 553.018 271.494 553.95C265.234 554.883 252.793 556.407 243.849 557.339C234.906 558.27 220.514 559.819 211.868 560.781C203.222 561.743 194.197 562.679 191.812 562.86L187.476 563.19L186.819 579.51C186.521 586.878 186.02 599.333 185.599 609.765L185.339 616.23C184.539 636.103 184.424 636.844 180.882 644.911C175.214 657.825 168.267 663.544 146.907 672.883C132.698 679.096 125.98 680.723 101.637 683.846C84.4841 686.047 75.6963 687.658 74.6393 688.794C74.3867 689.065 79.4256 690.19 85.8371 691.294C98.0962 693.402 114.814 699.016 136.523 708.312C152.109 714.984 157.138 716.108 175.55 717.03C197.646 718.136 212.934 722.785 230.84 733.842C246.851 743.73 257.365 748.714 268.001 751.462C274.95 753.257 278.39 754.725 279.128 756.205C280.498 758.959 277.651 760.761 271.837 760.821C269.561 760.845 264.285 761.651 260.111 762.614C254.732 763.856 240.211 764.696 210.242 765.502C155.504 766.974 143.937 765.827 124.074 756.962C106.641 749.181 99.0892 742.367 86.1851 722.78L85.2507 721.361C73.6386 703.73 69.0634 696.783 62.8823 693.73C58.8635 691.745 54.166 691.406 46.4142 690.846L45.4572 690.777C38.302 690.257 30.0086 689.486 27.0273 689.06L21.6067 688.287L25.4011 691.515C38.7856 702.903 44.7547 712.955 50.7054 734.135C55.5156 751.256 58.6389 757.875 64.776 763.958C74.0864 773.186 83.1517 776.522 113.214 781.787C130.353 784.789 145.099 785.113 168.504 783.002C193.948 780.706 205.383 783.418 240.597 800.098C250.734 804.898 262.647 810.48 267.071 812.5C280.904 818.815 277.622 821.401 258.713 819.083C231.65 815.766 224.196 816.22 181.039 823.806C152.938 828.745 139.924 828.157 110.88 820.63C99.0675 817.57 97.0923 817.416 61.1768 816.773C25.7144 816.14 23.5506 815.976 19.4385 813.618C13.7155 810.335 10.9543 806.997 7.5545 799.247L4.74123 792.836L5.41446 763.11C5.78523 746.761 6.56145 731.286 7.14036 728.721C7.71928 726.157 10.4458 719.862 13.2005 714.733C16.2263 709.098 18.2156 703.951 18.2265 701.726C18.2525 696.704 12.9057 688.504 9.60455 688.504C1.30568 688.504 -1.3157 682.342 5.88713 679.766C10.1726 678.232 12.2335 673.75 12.3202 665.773C12.3701 661.118 8.28193 649.878 5.98253 648.351C2.80609 646.24 0.0676254 637.667 0.00474701 629.635C-0.053795 622.338 0.379848 620.589 4.10052 613.088C11.0551 599.069 23.0334 589.039 38.4668 584.311C46.5575 581.833 64.0042 580.097 81.0767 580.071C112.791 580.025 153.466 576.904 159.241 574.075C160.682 573.369 162.702 573.139 163.728 573.562C165.385 574.246 165.27 574.699 162.706 577.577C161.116 579.36 156.479 587.608 152.4 595.902C143.11 614.8 136.491 625.002 128.601 632.585C121.26 639.638 106.096 648.114 97.2972 650.081C89.5978 651.801 54.8553 650.989 42.5865 648.801C35.8097 647.593 33.6686 647.601 30.8705 648.848C26.6652 650.721 22.1488 659.619 22.1488 666.033C22.1488 668.463 21.7076 672.105 21.1688 674.125C19.8754 678.973 20.5703 679.142 41.7896 679.162C57.1677 679.177 60.7453 678.75 80.8155 674.518C92.9673 671.954 110.222 668.771 119.158 667.443C137.007 664.792 144.728 662.421 155.757 656.207C164.704 651.165 169.634 645.49 172.889 636.491C175.255 629.948 175.372 628.121 175.458 596.412L175.55 563.19L165.171 561.335C159.462 560.315 153.364 558.948 151.62 558.297C149.546 557.523 137.752 557.411 117.551 557.974C82.6053 558.949 74.4105 558.087 47.0833 550.568C13.7686 541.402 9.41049 537.015 4.86265 508.056C0.669307 481.354 0.163027 470.671 2.17839 451.381C3.8837 435.064 3.85334 423.022 2.07757 411.064C1.74474 408.82 1.94747 406.218 2.52964 405.282C4.3954 402.277 7.74963 407.074 15.926 424.445C25.2353 444.223 30.284 450.055 47.7078 461.162C61.7308 470.1 70.9609 479.408 74.8442 488.528C76.3565 492.082 79.5134 503.217 81.8573 513.273C84.2022 523.328 86.8811 532.805 87.8112 534.331C92.539 542.089 118.066 552.115 133.09 552.115H136.306L132.039 548.792C126.1 544.166 122.601 539.396 118.798 530.74C113.433 518.53 112.183 511.302 111.003 485.67C110.904 483.541 110.815 481.558 110.732 479.71C109.896 461.153 109.672 456.188 107.391 454.444C106.558 453.807 105.45 453.6 103.938 453.317C103.525 453.24 103.083 453.157 102.608 453.059C82.7712 448.944 76.2817 446.202 74.0788 441.003C74.0788 441.003 74.0207 436.047 75.2559 434.023C76.3764 432.187 79.0367 431.413 80.6601 430.941C81.3951 430.727 81.9175 430.575 81.9882 430.414C82.0382 430.3 81.6227 429.937 80.9907 429.383C78.7539 427.425 73.8049 423.091 77.1794 419.071C79.3915 416.436 82.7038 417.099 84.4469 417.448C85.091 417.577 85.5209 417.664 85.6018 417.524C85.6859 417.38 85.5521 417.032 85.3638 416.544C84.8808 415.29 84.0398 413.107 85.6018 411.035C89.976 407.132 96.013 411.61 99.3401 414.078C100.58 414.998 101.443 415.638 101.704 415.462C101.982 415.274 101.974 413.973 101.963 412.198C101.936 407.834 101.891 400.605 106.032 399.994C110.21 399.378 112.599 405.321 113.972 408.734C114.513 410.082 114.897 411.035 115.169 411.035C115.441 411.035 115.839 409.908 116.398 408.326C117.813 404.32 120.258 397.395 124.306 398.448C129.587 399.822 129.455 405.726 129.382 408.941C129.356 410.116 129.338 410.932 129.595 411.035C129.92 411.164 130.955 409.802 132.332 407.99C135.039 404.428 139.068 399.128 141.617 399.994C144.429 400.95 144.418 401.737 144.394 403.408C144.385 404.023 144.374 404.758 144.503 405.666V408.759C144.503 408.759 142.98 415.978 143.541 417.009C143.703 417.307 144.917 416.569 146.644 415.519C150.882 412.942 158.209 408.488 160.644 412.884C163.036 417.203 161.752 420.518 160.994 422.476C160.666 423.323 160.436 423.916 160.644 424.227C160.895 424.602 161.65 424.713 162.57 424.848C164.18 425.083 166.294 425.393 167.104 427.321C168.843 431.461 161.681 437.472 160.744 438.234C160.71 438.261 160.676 438.288 160.644 438.315C158.67 439.934 155.851 441.751 154.378 442.355L151.7 443.453L154.952 444.241C161.425 445.813 163.248 447.095 162.886 449.824C162.228 454.79 157.626 455.942 138.369 455.964C123.948 455.98 120.515 456.301 119.684 457.712C118.073 460.453 118.471 473.23 120.342 478.82C121.281 481.626 122.451 489.691 122.942 496.744C123.907 510.604 125.012 514.293 131.997 526.958C140.743 542.816 146.743 546.571 165.522 547.941L175.008 548.632V544.704C175.008 542.544 175.511 537.951 176.125 534.497C176.74 531.044 177.895 523.221 178.694 517.112C179.636 509.909 181.159 503.862 183.024 499.903C184.606 496.546 186.647 489.478 187.561 484.197C192.713 454.43 202.325 439.892 230.938 418.592C259.01 397.697 268.051 386.748 272.213 368.612C273.835 361.545 273.872 358.501 272.594 337.257C270.811 307.611 271.332 297.391 275.11 287.862C276.683 283.895 278.873 277.103 279.976 272.77C281.081 268.437 282.462 264.721 283.047 264.511C283.665 264.29 285.12 273.544 286.521 286.597C287.848 298.954 289.587 313.785 290.386 319.555C295.294 354.979 295.319 401.992 290.441 423.011C287.322 436.448 280.058 447.101 270.375 452.436C255.926 460.397 234.589 467.77 221.329 469.386C210.112 470.752 205.546 472.732 200.076 478.602C196.515 482.423 196.388 482.783 198.49 483.11C202.745 483.771 238.592 473.194 252.522 467.167C258.485 464.588 268.242 461.343 274.205 459.959C287.919 456.774 291.391 454.833 298.829 446.194C306.405 437.395 308.344 431.58 308.383 417.559C308.4 411.742 308.909 402 309.516 395.91C311.084 380.191 311.796 307.221 310.552 289.845C309.099 269.542 307.353 263.874 300.272 256.448L300.09 256.258C298.628 254.724 297.505 253.546 296.241 252.592C292.052 249.431 286.315 248.728 261.57 245.696L260.653 245.584C250.219 244.305 237.535 242.737 232.466 242.1C223.39 240.959 223.153 240.995 216.664 244.474C213.041 246.417 207.28 250.467 203.862 253.472C189.364 266.224 187.218 267.801 182.129 269.448C176.279 271.341 169.796 271.536 158.303 270.164C154.185 269.672 141.745 269.743 130.659 270.321C114.136 271.184 107.959 271.031 96.38 269.477C85.9802 268.081 75.4036 267.672 56.2679 267.922L30.2796 268.264L24.4265 264.693C19.8678 261.914 17.6617 259.502 14.4538 253.797C12.1869 249.767 9.81487 243.767 9.18174 240.465C7.43633 231.356 4.20242 185.23 3.10205 153.732C2.36594 132.683 2.3822 132.458 4.62089 132.458C6.28825 132.458 8.82182 135.597 14.2456 144.383C18.2937 150.941 24.5674 159.512 28.1873 163.429C37.7231 173.749 43.289 176.291 70.3917 182.713C83.8 185.891 95.2927 194.763 114.807 217.001C132.173 236.793 136.8 240.553 151.187 246.565C172.587 255.507 179.535 255.624 192.478 247.253C196.881 244.404 201.124 242.065 201.904 242.055C202.685 242.044 203.061 241.578 202.74 241.021C202.419 240.463 196.17 239.637 188.854 239.186C160.449 237.436 143.7 229.797 127.768 211.328C115.755 197.402 110.804 185.387 107.716 162.671C107.023 157.577 106.043 153.135 105.538 152.8C105.032 152.464 101.726 152.995 98.1905 153.98C90.7589 156.052 77.6791 156.317 71.658 154.519C69.3727 153.837 66.0076 151.741 64.1798 149.862C63.8175 149.49 63.564 149.221 63.3731 149.018C63.0822 148.709 62.9367 148.554 62.7733 148.426C62.6099 148.298 62.4285 148.196 62.0659 147.992C61.8279 147.858 61.5119 147.68 61.0717 147.423C61.0717 138.74 68.7214 138.326 72.7853 138.106C74.2551 138.026 75.2559 137.972 75.2559 137.561C75.2559 137.052 74.0802 136.374 72.5813 135.511C69.5292 133.753 65.137 131.223 66.6001 127.765C68.4496 123.394 77.2933 123.57 80.0154 123.694C80.4618 123.816 80.7351 123.824 80.7878 123.741C80.8563 123.633 80.4214 123.196 79.8382 122.611C79.0606 121.831 78.0193 120.786 77.5561 119.903C76.7454 118.356 76.9948 116.464 77.2679 116.007C78.5819 114.455 79.6218 113.716 81.0264 112.813C87.4412 109.756 93.0637 114.911 95.7408 117.366C96.6761 118.224 97.2518 118.751 97.3764 118.484C97.4923 118.236 97.3456 117.239 97.1398 115.84C96.4921 111.437 95.2583 103.051 99.7808 101.47C103.957 100.011 106.942 106.428 108.867 110.566C109.738 112.438 110.392 113.844 110.841 113.844C111.318 113.844 111.689 112.606 112.181 110.966C113.179 107.643 114.671 102.672 118.535 103.017C121.625 103.293 121.553 106.081 121.479 108.929C121.414 111.399 121.349 113.914 123.344 114.875C123.344 114.875 129.114 105.595 135.366 107.657C136.69 108.094 137.579 108.716 138.156 109.425C140.306 112.063 138.156 115.907 138.156 115.907C138.337 116.074 139.076 115.888 140.094 115.632C142.323 115.072 145.888 114.175 147.869 115.907C152.65 120.086 146.727 125.386 143.473 128.298C142.312 129.337 141.491 130.072 141.617 130.343C141.799 130.732 142.808 130.605 144.118 130.439C146.618 130.123 150.214 129.668 151.235 132.405C152.314 135.297 150.529 137.394 148.754 138.678C147.543 139.237 146.575 139.758 145.98 140.19C142.825 142.482 131.04 146.012 119.448 148.138C114.578 149.031 114.359 150.503 117.661 160.173C118.914 163.844 120.786 170.569 121.82 175.117C124.051 184.936 127.228 192.331 132.003 198.82C137.139 205.8 151.469 216.076 159.823 218.769C168.042 221.419 195.883 224.147 230.84 225.728C259.116 227.007 261.364 227.281 279.609 231.661C287.352 233.52 294.076 235.041 294.553 235.041C295.906 235.041 293.379 230.626 289.134 225.573C284.846 220.471 271.23 210.458 261.139 204.99C247.182 197.427 234.101 195.511 215.121 198.251C193.821 201.326 184.975 200.566 169.572 194.341C162.225 191.372 149.635 181.296 145.233 174.861C143.424 172.216 140.132 167.364 137.918 164.078L133.894 158.104H142.144C149.654 158.104 152.82 157.214 177.489 148.173C214.29 134.684 224.337 131.968 234.13 132.859C249.433 134.25 266.813 142.801 277.016 153.961C282.677 160.152 294.98 181.688 297.021 188.979C297.768 191.649 298.939 200.615 299.62 208.901C301.778 235.087 302.483 238.334 307.203 243.84C312.676 250.227 313.256 251.526 315.792 263.095C318.591 275.868 319.187 284.944 319.266 316.058C319.34 345.544 316.334 427.188 314.823 436.71C313.199 446.947 307.616 457.624 301.637 461.927C294.921 466.763 280.567 472.249 263.906 476.35C256.452 478.183 246.371 481.271 241.502 483.211C236.635 485.151 229.317 487.559 225.241 488.562C213.088 491.553 201.16 496.191 197.799 499.233C194.042 502.632 190.702 511.623 189.622 521.245L188.84 528.218L192.786 522.722C198.823 514.312 209.658 507.135 219.457 505.053C229.449 502.93 243.03 500.524 256.622 498.47C277.714 495.282 295.709 490.732 304.56 486.349C318.47 479.461 332.079 462.794 336.725 446.953C338.513 440.855 338.754 437.836 338.157 428.974C337.576 420.325 337.772 417.635 339.206 414.657C341.181 410.549 342.461 410.732 343.52 415.271C343.914 416.956 346.972 423.649 350.317 430.145C364.958 458.582 366.357 462.881 365.543 476.927C364.829 489.242 361.531 496.772 352.576 506.535C339.694 520.579 334.323 522.662 307.27 524.105C296.835 524.662 284.151 526.034 279.083 527.154C271.33 528.867 264.74 529.148 237.541 528.93C201.091 528.638 200.271 528.798 192.107 537.815C187.719 542.663 185.791 549.385 188.473 550.493C189.341 550.85 202.889 549.516 218.577 547.526C296.75 537.609 333.459 536.846 357.681 544.63L363.102 546.372L366.665 541.958C372.29 534.991 378.598 519.919 381.002 507.707C382.19 501.677 383.852 493.859 384.696 490.332C386.95 480.912 388.021 456.27 386.324 452.841C385.583 451.342 382.371 447.192 379.184 443.618C366.771 429.691 361.972 421.151 352.913 396.87C349.966 388.969 346.103 379.094 344.33 374.927C335.066 353.145 332.98 337.928 333.945 299.155C334.875 261.834 333.174 248.764 322.378 210.269C320.303 202.869 320.1 200.972 321.257 199.778C322.397 198.602 323.116 198.992 324.997 201.81C326.278 203.727 332.24 210.809 338.246 217.547C350.663 231.471 355.735 239.085 363.11 254.858C369.834 269.237 373.927 282.306 377.349 300.321C380.037 314.469 380.122 316.331 380.316 364.435L380.515 413.978L383.543 425.635C385.209 432.047 386.971 437.735 387.459 438.276C388.625 439.565 389.954 413.685 389.487 398.824C389.285 392.412 389.492 365.135 389.948 338.207C390.403 311.279 390.403 271.842 389.948 250.57L389.947 250.568C389.938 250.106 389.989 249.623 390.04 249.146C390.089 248.678 390.138 248.215 390.129 247.781L390.118 247.28L390.109 246.856L390.064 244.722Z" fill="#0077FF"/>
<path d="M83.8184 403.005C86.3184 408.383 86.6913 410.062 85.6018 411.035C89.976 407.132 96.013 411.61 99.3401 414.078C100.58 414.998 101.443 415.638 101.704 415.462C101.982 415.274 101.974 413.973 101.963 412.198C101.936 407.834 101.891 400.605 106.032 399.994C110.21 399.378 112.599 405.321 113.972 408.734C114.513 410.082 114.897 411.035 115.169 411.035C115.441 411.035 115.839 409.908 116.398 408.326C117.813 404.32 120.258 397.395 124.306 398.448C129.587 399.822 129.455 405.726 129.382 408.941C129.356 410.116 129.338 410.932 129.595 411.035C129.92 411.164 130.955 409.802 132.332 407.99C135.039 404.428 139.068 399.128 141.617 399.994C144.429 400.95 144.418 401.737 144.394 403.408C144.385 404.023 144.374 404.758 144.503 405.666C144.521 403.444 144.809 399.032 145.594 397.377C148.391 391.481 154.061 371.344 155.361 362.687C158.377 342.606 157.173 318.746 152.361 303.235C150.197 296.261 145.538 290.27 143.387 291.699C142.778 292.104 141.075 291.744 139.605 290.897C137.427 289.644 136.519 289.635 134.712 290.848C132.988 292.006 131.816 292.037 129.462 290.988C127.044 289.912 125.815 289.986 123.391 291.351C120.742 292.843 120.046 292.847 117.97 291.384C115.921 289.941 115.08 289.933 111.962 291.329C109.438 292.457 107.437 292.627 105.382 291.886C103.22 291.106 101.806 291.29 100.101 292.574C98.4995 293.78 97.0143 294.017 95.3382 293.331C93.7164 292.668 91.9005 292.895 89.9036 294.01C87.6594 295.26 86.5331 295.353 85.437 294.375C82.9924 292.192 78.8912 294.213 76.3359 298.856C72.3746 306.055 70.666 319.605 71.4487 337.624C72.7107 366.704 76.6677 387.615 83.8184 403.005Z" fill="#FF3985"/>
<path d="M151.491 402.708C151.491 402.708 146.961 406.439 144.503 408.759C144.503 408.759 142.98 415.978 143.541 417.009C143.703 417.307 144.917 416.569 146.644 415.519C150.882 412.942 158.209 408.488 160.644 412.884C163.036 417.203 161.752 420.518 160.994 422.476C160.666 423.323 160.436 423.916 160.644 424.227C160.895 424.602 161.65 424.713 162.57 424.848C164.18 425.083 166.294 425.393 167.104 427.321C168.843 431.461 161.681 437.472 160.744 438.234C162.801 436.606 168.322 433.885 173.143 432.131C189.433 426.206 206.314 415.405 218.601 403.047C235.619 385.929 254.149 346.769 254.149 327.922C254.149 322.964 252.212 318.972 249.808 318.972C249.294 318.972 248.556 317.893 248.166 316.574C247.077 312.884 242.658 311.57 239.048 313.863C236.267 315.629 235.852 315.623 233.23 313.774C231.57 312.605 229.508 312.09 228.233 312.526C226.973 312.956 224.923 312.465 223.354 311.36C221.759 310.236 219.74 309.763 218.437 310.207C217.14 310.65 215.227 310.208 213.807 309.138C210.565 306.697 208.267 306.842 205.916 309.634C203.975 311.941 203.951 311.937 201.463 309.051C195.515 302.151 191.632 307.92 187.142 330.326C184.97 341.162 182.232 350.809 179.256 358.107C173.053 373.313 159.407 395.236 151.491 402.708Z" fill="#FF3985"/>
</g>
</svg>
