<svg width="750" height="638" viewBox="0 0 750 638" fill="none" xmlns="http://www.w3.org/2000/svg">
<path fill-rule="evenodd" clip-rule="evenodd" d="M506.083 25.0092C521.852 12.5677 539.654 2.35054 548.901 0.434166C553.378 -0.49314 559.94 0.108533 564.06 1.82372C568.262 3.57447 570.986 8.5123 570.986 14.3812C570.986 30.9773 547.282 69.7454 518.854 99.6429C499.536 119.958 443.666 174.757 433.9 182.967C426.998 188.769 421.715 194.431 422.849 194.813C423.461 195.02 429.69 191.267 436.691 186.474C453.707 174.826 497.691 143.74 506.262 137.307C534.033 116.461 580 89.3994 623.388 68.354C645.376 57.6886 658.171 55.396 672.922 59.4758C678.535 61.0282 680.838 62.239 684.052 65.3241C689.165 70.2329 690.761 73.2703 690.761 78.0893C690.761 88.0426 676.404 105.962 649.286 129.855C616.769 158.506 564.086 191.806 523.263 209.511C519.918 210.962 511.917 214.454 505.484 217.271C493.977 222.31 474.264 229.979 466.37 232.487C464.157 233.19 462.13 234.115 461.865 234.543C460.749 236.35 464.735 236.296 470.914 234.419C480.631 231.468 556.384 212.756 577.068 208.198C586.847 206.043 601.374 202.847 609.351 201.097C617.329 199.347 633.33 196.347 644.91 194.43C662.709 191.485 668.206 190.943 680.468 190.919C692.837 190.896 696.073 191.208 702.458 193.036C713.779 196.278 722.34 200.794 729.362 207.229C737.64 214.814 739.076 219.529 736.129 229.453C733.523 238.228 723.251 247.609 708.072 255.075C687.841 265.026 624.994 281.786 592.976 285.768C569.07 288.741 531.247 290.894 476.476 292.4C456.147 292.959 438.505 293.629 437.273 293.889C432.641 294.865 437.189 295.927 452.614 297.47C461.364 298.346 471.259 299.448 474.604 299.921C477.95 300.394 486.161 301.429 492.851 302.22C539.156 307.699 578.07 319.313 623.257 341.14C666.38 361.969 679.286 374.228 680.295 395.321C680.749 404.84 679.805 408.435 675.301 414.335C670.178 421.044 662.991 424.495 651.409 425.807C643.967 426.65 604.151 422.349 585.022 418.636C573.679 416.435 548.56 411.008 541.51 409.235C515.507 402.696 481.954 390.205 464.166 380.442C458.339 377.243 456.825 376.905 456.825 378.8C456.825 379.495 460.299 382.4 464.545 385.257C468.792 388.114 477.318 393.921 483.494 398.162C521.356 424.166 565.787 447.659 611.691 465.945C644.248 478.914 665.445 485.918 696.375 493.927C713.56 498.376 731.663 502.216 750 505.356V522.028C698.309 513.169 648.605 498.875 599.526 478.799C559.663 462.493 513.053 437.69 477.622 413.929C472.333 410.382 467.597 407.48 467.095 407.48C465.173 407.48 466.355 409.386 470.972 413.733C478.687 420.996 490.583 436.457 504.298 457.047C524.535 487.426 529.475 498.427 531.628 517.896C533.556 535.343 530.466 546.471 521.232 555.333C507.097 568.9 483.594 572.345 464.438 563.66C456.608 560.11 444.712 552.135 437.553 545.635C431.308 539.966 414.208 518.301 406.059 505.732C400.432 497.055 384.244 466.82 377.252 451.928C374.836 446.781 369.486 435.622 365.365 427.131C361.243 418.639 354.408 404.112 350.175 394.848C345.942 385.584 341.889 377.388 341.168 376.635C340.03 375.445 339.858 375.59 339.858 377.744C339.858 379.107 340.236 381.22 340.701 382.44C341.165 383.66 342.447 388.845 343.549 393.964C354.128 443.048 358.413 477.019 357.294 502.925C356.563 519.833 353.39 552.261 351.44 562.75C348.451 578.826 339.591 600.231 329.572 615.578C320.209 629.92 307.904 638.109 295.881 637.999C287.925 637.927 282.658 635.526 276.865 629.333C265.815 617.52 260.736 596.586 259.703 558.601C258.811 525.797 259.946 513.582 270.048 447.249C271.851 435.412 274.4 420.511 275.712 414.135C277.024 407.76 278.098 401.55 278.098 400.333C278.098 396.326 276.306 398.03 274.764 403.504C271.168 416.28 269.243 422.04 262.953 438.827C246.309 483.256 230.119 517.342 206.51 557.665C195.403 576.635 192.005 581.489 185.19 588.119C158.779 613.813 126.426 617.815 116.042 596.672C112.695 589.856 113.084 579.097 117.098 567.49C126.064 541.567 132.413 527.212 142.022 511.129C154.103 490.91 182.529 448.557 198.086 427.599C202.287 421.938 209.45 411.832 214.001 405.141C218.553 398.451 224.731 389.543 227.73 385.345C233.007 377.96 234.101 375.666 232.344 375.666C231.883 375.666 222.983 385.245 212.566 396.954C179.001 434.679 173.711 439.691 131.282 473.972C105.368 494.909 79.9802 512.731 64.9494 520.535C45.8827 530.434 31.4938 530.837 26.5849 521.611C22.3282 513.611 32.8179 489.249 49.3375 468.771C60.3942 455.063 113.038 404.315 126.828 394.07C133.232 389.311 145.448 381.776 159.497 373.917C171.876 366.992 186.369 358.281 187.67 356.984C188.115 356.541 188.325 355.739 188.138 355.201C187.711 353.97 162.425 364.495 131.372 378.828C93.3688 396.37 57.2613 407.879 29.685 411.24C15.4346 412.977 3.79205 410.605 1.00447 405.397C-0.659277 402.287 -0.234447 396.462 2.11707 390.169C6.13141 379.425 17.9789 370.294 48.3736 354.517C81.8283 337.153 115.508 323.711 152.241 313.063C159.973 310.822 184.314 305.026 189.671 304.15C197.896 302.806 202.576 299.044 194.583 300.201C184.188 301.706 143.323 302.862 118.554 302.352C74.0832 301.436 52.8502 296.689 39.9201 284.771C28.884 274.599 29.4988 262.639 41.6999 250.143C54.6749 236.853 78.542 230.473 109.665 231.973C136.77 233.28 155.998 236.086 180.781 242.353C190.302 244.759 200.83 247.329 204.175 248.061C207.52 248.794 213.972 250.685 218.511 252.265C223.052 253.843 227.014 254.888 227.318 254.584C228.375 253.526 224.637 250.485 220.271 248.852C213.866 246.456 173.902 226.406 159.725 218.476C126.61 199.953 117.175 188.043 118.275 166.154C119.049 150.768 126.031 141.478 140.544 136.525C151.941 132.636 166.927 134.956 184.056 143.265C200.253 151.121 236.319 182.63 255.049 205.287C264.105 216.241 266.676 218.969 267.328 218.317C267.663 217.982 263.944 209.562 259.063 199.606C246.381 173.732 234.444 144.24 229.78 127.252C226.565 115.548 225.802 99.1815 227.965 88.372C232.141 67.5081 245.735 51.2105 260.397 49.4906C280.181 47.17 294.232 65.1912 304.225 105.708C310.15 129.725 313.773 152.801 315.651 178.461C317.022 197.203 317.923 198.567 320.131 185.245C322.598 170.36 327.413 145.741 332.484 122.083C338.696 93.0993 354.059 53.5686 368.079 30.4935C379.463 11.7546 393.44 1.37458 407.288 1.37458C413.873 1.37458 416.554 2.30937 419.864 5.76127C423.929 10.0001 425.208 14.1604 425.719 24.8286C426.787 47.0634 421.57 69.7473 407.621 103.521C394.627 134.982 385.865 155.517 381.343 165.108C376.691 174.976 375.321 180.141 377.808 178.437C378.353 178.064 383.676 170.39 389.64 161.384C417.818 118.821 447.305 82.1213 478.815 50.3955C488.594 40.5498 500.864 29.1264 506.083 25.0092ZM394.058 266.186C403.018 238.528 390.293 215.783 363.719 211.957C343.658 209.07 322.705 214.319 299.621 228.017C288.342 234.71 276.387 244.32 271.566 250.57C269.507 253.241 264.514 259.705 260.471 264.936C249.867 278.659 246.646 283.803 241.94 294.532C236.881 306.068 235.086 313.187 235.068 321.8C235.009 349.38 257.305 361.816 294.73 355.077C321.442 350.267 341.895 337.88 365.454 312.245C380.654 295.704 388.684 282.774 394.058 266.186Z" fill="#FF3985"/>
</svg>
