<svg width="26" height="25" viewBox="0 0 26 25" fill="none" xmlns="http://www.w3.org/2000/svg">
<path d="M13 15C13.7108 15 14.3994 14.9086 15.0538 14.7373C15.143 14.7139 15.2316 14.6891 15.3195 14.6628C15.378 14.6453 15.4362 14.6272 15.4941 14.6084C17.6678 13.9035 19.4127 12.3027 20.2538 10.2627C20.6063 9.40774 20.8 8.47562 20.8 7.5C20.8 3.35786 17.3078 0 13 0C8.69218 0 5.2 3.35786 5.2 7.5C5.2 11.6421 8.69218 15 13 15Z" fill="#0077FF"/>
<path d="M15.0538 14.7373C14.3994 14.9086 13.7108 15 13 15C9.70682 15 6.89031 13.0376 5.74623 10.2627C2.43482 11.1295 0 14.0413 0 17.5C0 21.6421 3.49218 25 7.8 25C9.79772 25 11.62 24.2779 13 23.0903C14.5957 21.717 15.6 19.7212 15.6 17.5C15.6 16.5244 15.4063 15.5923 15.0538 14.7373Z" fill="white"/>
<path d="M15.3195 14.6628C15.2316 14.6891 15.143 14.7139 15.0538 14.7373C15.4063 15.5923 15.6 16.5244 15.6 17.5C15.6 19.7212 14.5957 21.717 13 23.0903C14.38 24.2779 16.2023 25 18.2 25C22.5078 25 26 21.6421 26 17.5C26 14.0413 23.5652 11.1295 20.2538 10.2627C19.4127 12.3027 17.6678 13.9035 15.4941 14.6084C15.4362 14.6272 15.378 14.6453 15.3195 14.6628Z" fill="#FF3985"/>
</svg>
