<svg width="33" height="28" viewBox="0 0 33 28" fill="none" xmlns="http://www.w3.org/2000/svg">
<path d="M8.16667 18.1667L13.1667 14L8.16667 9.83333M18.1667 18.1667H24.8333M9.5 26.5H23.5C26.3003 26.5 27.7004 26.5 28.77 26.0459C29.7108 25.6464 30.4757 25.009 30.955 24.225C31.5 23.3337 31.5 22.1669 31.5 19.8333V8.16667C31.5 5.83311 31.5 4.66634 30.955 3.77504C30.4757 2.99103 29.7108 2.35361 28.77 1.95414C27.7004 1.5 26.3003 1.5 23.5 1.5H9.5C6.69974 1.5 5.29961 1.5 4.23005 1.95414C3.28924 2.35361 2.52433 2.99103 2.04497 3.77504C1.5 4.66634 1.5 5.83311 1.5 8.16667V19.8333C1.5 22.1669 1.5 23.3337 2.04497 24.225C2.52433 25.009 3.28924 25.6464 4.23005 26.0459C5.29961 26.5 6.69974 26.5 9.5 26.5Z" stroke="#0077FF" stroke-width="3" stroke-linecap="round" stroke-linejoin="round"/>
</svg>
