<svg width="25" height="27" viewBox="0 0 25 27" fill="none" xmlns="http://www.w3.org/2000/svg">
<path d="M7.6015 25.0263C5.85656 22.5469 4.83004 19.5304 4.83004 16.2734C4.83004 12.0554 8.2624 8.6367 12.4963 8.6367C16.7302 8.6367 20.1625 12.0554 20.1625 16.2734M20.578 23.8897C20.44 23.8974 20.3044 23.9101 20.1651 23.9101C15.9312 23.9101 12.4989 20.4914 12.4989 16.2734M14.0915 26C10.8343 23.9775 8.66496 20.3781 8.66496 16.2734C8.66496 14.1644 10.3818 12.455 12.4987 12.455C14.6157 12.455 16.3325 14.1644 16.3325 16.2734C16.3325 18.3824 18.0493 20.0917 20.1662 20.0917C22.2832 20.0917 24 18.3824 24 16.2734C24 9.94639 18.8508 4.81835 12.5 4.81835C6.14918 4.81835 1 9.94639 1 16.2734C1 17.6836 1.15851 19.057 1.44998 20.3807M23.2017 5.82894C20.5874 2.87226 16.7652 1 12.4981 1C8.23095 1 4.40869 2.87226 1.79448 5.82894" stroke="white" stroke-width="2" stroke-linecap="round" stroke-linejoin="round"/>
</svg>
