<svg width="33" height="33" viewBox="0 0 33 33" fill="none" xmlns="http://www.w3.org/2000/svg">
<path d="M9 18C9.82843 18 10.5 17.3284 10.5 16.5C10.5 15.6716 9.82843 15 9 15C8.17157 15 7.5 15.6716 7.5 16.5C7.5 17.3284 8.17157 18 9 18Z" fill="#FF3985"/>
<path d="M22.5 12C23.3284 12 24 11.3284 24 10.5C24 9.67157 23.3284 9 22.5 9C21.6716 9 21 9.67157 21 10.5C21 11.3284 21.6716 12 22.5 12Z" fill="#FF3985"/>
<path d="M13.5 10.5C14.3284 10.5 15 9.82843 15 9C15 8.17157 14.3284 7.5 13.5 7.5C12.6716 7.5 12 8.17157 12 9C12 9.82843 12.6716 10.5 13.5 10.5Z" fill="#FF3985"/>
<path d="M1.5 16.5C1.5 24.7843 8.21573 31.5 16.5 31.5C18.9853 31.5 21 29.4853 21 27V26.25C21 25.5534 21 25.2051 21.0385 24.9126C21.3043 22.8933 22.8933 21.3043 24.9126 21.0385C25.2051 21 25.5534 21 26.25 21H27C29.4853 21 31.5 18.9853 31.5 16.5C31.5 8.21573 24.7843 1.5 16.5 1.5C8.21573 1.5 1.5 8.21573 1.5 16.5Z" stroke="#FF3985" stroke-width="3" stroke-linecap="round" stroke-linejoin="round"/>
<path d="M9 18C9.82843 18 10.5 17.3284 10.5 16.5C10.5 15.6716 9.82843 15 9 15C8.17157 15 7.5 15.6716 7.5 16.5C7.5 17.3284 8.17157 18 9 18Z" stroke="#FF3985" stroke-width="3" stroke-linecap="round" stroke-linejoin="round"/>
<path d="M22.5 12C23.3284 12 24 11.3284 24 10.5C24 9.67157 23.3284 9 22.5 9C21.6716 9 21 9.67157 21 10.5C21 11.3284 21.6716 12 22.5 12Z" stroke="#FF3985" stroke-width="3" stroke-linecap="round" stroke-linejoin="round"/>
<path d="M13.5 10.5C14.3284 10.5 15 9.82843 15 9C15 8.17157 14.3284 7.5 13.5 7.5C12.6716 7.5 12 8.17157 12 9C12 9.82843 12.6716 10.5 13.5 10.5Z" stroke="#FF3985" stroke-width="3" stroke-linecap="round" stroke-linejoin="round"/>
</svg>
