<svg width="492" height="40" viewBox="0 0 492 40" fill="none" xmlns="http://www.w3.org/2000/svg">
<path fill-rule="evenodd" clip-rule="evenodd" d="M2.81177 2.81177C0 5.62355 0 10.149 0 19.2V20.8C0 29.851 0 34.3765 2.81177 37.1882C5.62355 40 10.149 40 19.2 40H20.8C29.851 40 34.3765 40 37.1882 37.1882C40 34.3765 40 29.851 40 20.8V19.2C40 10.149 40 5.62355 37.1882 2.81177C34.3765 0 29.851 0 20.8 0H19.2C10.149 0 5.62355 0 2.81177 2.81177ZM6.75006 12.1667C6.96673 22.5667 12.1667 28.8167 21.2833 28.8167H21.8001V22.8667C25.1501 23.2001 27.6833 25.6501 28.6999 28.8167H33.4334C32.1334 24.0834 28.7166 21.4667 26.5832 20.4667C28.7166 19.2334 31.7166 16.2334 32.4332 12.1667H28.1331C27.1998 15.4667 24.4334 18.4667 21.8001 18.7501V12.1667H17.5V23.7001C14.8333 23.0334 11.4667 19.8001 11.3167 12.1667H6.75006Z" fill="white"/>
<path d="M73.2713 20.6198C73.2713 20.9725 73.2478 21.4074 73.2007 21.9247H58.4587C58.6468 23.3589 59.2346 24.511 60.2221 25.381C61.2096 26.2274 62.4675 26.6506 63.9958 26.6506C65.0303 26.6506 65.9591 26.4508 66.782 26.0511C67.6284 25.6514 68.275 25.1106 68.7217 24.4287L72.5307 25.0636C71.8723 26.7564 70.732 28.0613 69.1097 28.9783C67.5108 29.8953 65.7239 30.3538 63.7489 30.3538C61.915 30.3538 60.2691 29.9541 58.8114 29.1546C57.3772 28.3317 56.2486 27.2032 55.4257 25.7689C54.6263 24.3112 54.2266 22.6653 54.2266 20.8314C54.2266 18.9975 54.6263 17.3634 55.4257 15.9291C56.2486 14.4714 57.3772 13.3428 58.8114 12.5434C60.2691 11.7205 61.915 11.309 63.7489 11.309C65.5829 11.309 67.2169 11.7205 68.6512 12.5434C70.1089 13.3428 71.2375 14.4597 72.0369 15.8939C72.8598 17.3046 73.2713 18.8799 73.2713 20.6198ZM63.7489 14.8358C62.5263 14.8358 61.4565 15.1885 60.5395 15.8939C59.6461 16.5992 59.0348 17.5515 58.7056 18.7506H68.8628C68.5101 17.575 67.8753 16.6345 66.9583 15.9291C66.0649 15.2003 64.9951 14.8358 63.7489 14.8358Z" fill="white"/>
<path d="M84.3317 30.3538C82.6153 30.3538 81.0752 29.9541 79.7115 29.1546C78.3479 28.3317 77.2781 27.2032 76.5022 25.7689C75.7498 24.3112 75.3736 22.6653 75.3736 20.8314C75.3736 18.9975 75.7498 17.3634 76.5022 15.9291C77.2781 14.4714 78.3479 13.3428 79.7115 12.5434C81.0752 11.7205 82.6153 11.309 84.3317 11.309C85.8129 11.309 87.1296 11.6147 88.2817 12.226C89.4338 12.8138 90.3742 13.5544 91.1031 14.4479V5.13714H95.1589V30.0011H92.1259L91.2795 27.0386C90.5271 27.9555 89.5631 28.7432 88.3875 29.4015C87.2119 30.0364 85.8599 30.3538 84.3317 30.3538ZM85.3192 26.7212C87.0355 26.7212 88.4227 26.1804 89.4808 25.0988C90.5623 23.9938 91.1031 22.5713 91.1031 20.8314C91.1031 19.0915 90.5623 17.6808 89.4808 16.5992C88.4227 15.4942 87.0355 14.9416 85.3192 14.9416C83.6263 14.9416 82.2508 15.4942 81.1928 16.5992C80.1348 17.6808 79.6057 19.0915 79.6057 20.8314C79.6057 22.5713 80.1348 23.9938 81.1928 25.0988C82.2508 26.1804 83.6263 26.7212 85.3192 26.7212Z" fill="white"/>
<path d="M106.622 30.3538C105.328 30.3538 104.153 30.0246 103.095 29.3663C102.06 28.7079 101.237 27.8027 100.626 26.6506C100.038 25.4985 99.7443 24.1936 99.7443 22.7359V11.6617H103.8V22.2774C103.8 23.5941 104.165 24.6639 104.893 25.4868C105.646 26.3097 106.598 26.7212 107.75 26.7212C108.926 26.7212 109.902 26.3097 110.677 25.4868C111.453 24.6403 111.841 23.5706 111.841 22.2774V11.6617H115.897V30.0011H112.864L112.053 27.2502C111.465 28.2142 110.689 28.9783 109.725 29.5426C108.761 30.0834 107.727 30.3538 106.622 30.3538Z" fill="white"/>
<path d="M128.982 30.3538C127.148 30.3538 125.502 29.9541 124.044 29.1546C122.587 28.3317 121.446 27.2032 120.623 25.7689C119.824 24.3112 119.424 22.6653 119.424 20.8314C119.424 18.9975 119.824 17.3634 120.623 15.9291C121.446 14.4714 122.587 13.3428 124.044 12.5434C125.502 11.7205 127.148 11.309 128.982 11.309C131.004 11.309 132.791 11.8145 134.343 12.8256C135.918 13.8131 137.035 15.2238 137.693 17.0577L133.884 17.6925C133.484 16.8931 132.861 16.2466 132.015 15.7528C131.192 15.2591 130.263 15.0122 129.229 15.0122C127.583 15.0122 126.243 15.553 125.208 16.6345C124.174 17.7161 123.656 19.115 123.656 20.8314C123.656 22.5478 124.174 23.9467 125.208 25.0283C126.243 26.1098 127.583 26.6506 129.229 26.6506C130.31 26.6506 131.274 26.4037 132.121 25.91C132.967 25.3927 133.602 24.7226 134.025 23.8997L137.834 24.5345C137.176 26.392 136.035 27.8262 134.413 28.8372C132.791 29.8483 130.98 30.3538 128.982 30.3538Z" fill="white"/>
<path d="M148.142 11.309C150.493 11.309 152.339 12.0497 153.679 13.5309C155.042 14.9887 155.724 17.046 155.724 19.7028V30.0011H152.727L151.88 27.1091C151.363 27.979 150.599 28.7432 149.588 29.4015C148.577 30.0364 147.378 30.3538 145.99 30.3538C144.768 30.3538 143.663 30.1069 142.675 29.6131C141.711 29.1194 140.959 28.4258 140.418 27.5323C139.877 26.6389 139.607 25.6278 139.607 24.4993C139.607 22.7594 140.289 21.3722 141.652 20.3377C143.04 19.2796 145.05 18.7506 147.683 18.7506H151.633C151.539 17.528 151.163 16.564 150.505 15.8586C149.87 15.1297 149.012 14.7653 147.93 14.7653C147.06 14.7653 146.308 14.9769 145.673 15.4001C145.038 15.8233 144.568 16.3406 144.262 16.9519L140.524 16.3171C140.971 14.7653 141.887 13.5427 143.275 12.6492C144.685 11.7558 146.308 11.309 148.142 11.309ZM146.943 26.9328C148.353 26.9328 149.494 26.4743 150.364 25.5573C151.233 24.6403 151.668 23.4295 151.668 21.9247H147.824C145.073 21.9247 143.698 22.7241 143.698 24.3229C143.698 25.1223 143.992 25.7572 144.58 26.2274C145.167 26.6976 145.955 26.9328 146.943 26.9328Z" fill="white"/>
<path d="M171.057 26.4743L170.705 30.0011H167.284C165.285 30.0011 163.769 29.5308 162.734 28.5904C161.7 27.6264 161.182 26.2392 161.182 24.4287V15.1885H158.185V11.6617H161.182L162.205 6.37152H165.238V11.6617H170.705V15.1885H165.238V24.4287C165.238 25.7924 165.92 26.4743 167.284 26.4743H171.057Z" fill="white"/>
<path d="M178.477 30.0011H174.422V11.6617H178.477V30.0011ZM176.467 9.05189C175.715 9.05189 175.103 8.82852 174.633 8.3818C174.163 7.91156 173.928 7.312 173.928 6.58313C173.928 5.85426 174.163 5.2547 174.633 4.78446C175.127 4.31422 175.738 4.0791 176.467 4.0791C177.196 4.0791 177.796 4.31422 178.266 4.78446C178.736 5.2547 178.971 5.85426 178.971 6.58313C178.971 7.312 178.736 7.91156 178.266 8.3818C177.796 8.82852 177.196 9.05189 176.467 9.05189Z" fill="white"/>
<path d="M191.981 30.3538C190.1 30.3538 188.407 29.9541 186.902 29.1546C185.421 28.3317 184.257 27.2032 183.411 25.7689C182.588 24.3112 182.176 22.6653 182.176 20.8314C182.176 18.9975 182.588 17.3634 183.411 15.9291C184.257 14.4714 185.421 13.3428 186.902 12.5434C188.407 11.7205 190.1 11.309 191.981 11.309C193.862 11.309 195.543 11.7205 197.024 12.5434C198.529 13.3428 199.693 14.4714 200.516 15.9291C201.362 17.3634 201.785 18.9975 201.785 20.8314C201.785 22.6653 201.362 24.3112 200.516 25.7689C199.693 27.2032 198.529 28.3317 197.024 29.1546C195.543 29.9541 193.862 30.3538 191.981 30.3538ZM191.981 26.6506C193.627 26.6506 194.967 26.1216 196.001 25.0636C197.036 23.982 197.553 22.5713 197.553 20.8314C197.553 19.0915 197.036 17.6925 196.001 16.6345C194.967 15.553 193.627 15.0122 191.981 15.0122C190.335 15.0122 188.995 15.553 187.96 16.6345C186.926 17.6925 186.409 19.0915 186.409 20.8314C186.409 22.5713 186.926 23.982 187.96 25.0636C188.995 26.1216 190.335 26.6506 191.981 26.6506Z" fill="white"/>
<path d="M205.311 30.0011V11.6617H208.344L209.156 14.4126C209.743 13.4486 210.519 12.6962 211.483 12.1555C212.471 11.5912 213.529 11.309 214.657 11.309C215.974 11.309 217.161 11.6382 218.219 12.2965C219.277 12.9549 220.112 13.8601 220.723 15.0122C221.335 16.1643 221.64 17.4692 221.64 18.9269V30.0011H217.585V19.3854C217.585 18.0687 217.208 16.9989 216.456 16.176C215.704 15.3531 214.74 14.9416 213.564 14.9416C212.341 14.9416 211.33 15.3649 210.531 16.2113C209.755 17.0342 209.367 18.0923 209.367 19.3854V30.0011H205.311Z" fill="white"/>
<path d="M241.64 0V40" stroke="white" stroke-width="2"/>
<path d="M331.29 24.8173C331.29 27.8539 328.458 30.0529 324.472 30.0529H315.136V11.2047H324.157C328.038 11.2047 330.766 13.2989 330.766 16.2309C330.766 18.2204 329.717 19.4769 328.143 20.2099C329.821 20.8382 331.29 22.5136 331.29 24.8173ZM319.227 14.6602V18.744H324.052C325.521 18.744 326.465 17.9063 326.465 16.7544C326.465 15.6026 325.416 14.6602 324.052 14.6602H319.227ZM324.472 26.5974C326.045 26.5974 327.199 25.655 327.199 24.2937C327.199 22.9324 326.15 21.99 324.472 21.99H319.227V26.5974H324.472Z" fill="white"/>
<path d="M346.709 29.9481L340.206 22.5136H339.157V29.9481H334.961V11.2047H339.157V18.4298H340.206L346.5 11.2047H351.43L343.563 20.2099L352.164 29.9481H346.709Z" fill="white"/>
<path d="M352.164 20.6288C352.164 14.9744 356.36 10.8906 362.234 10.8906C368.108 10.8906 372.304 14.9744 372.304 20.6288C372.304 26.2833 368.108 30.3671 362.234 30.3671C356.36 30.3671 352.164 26.2833 352.164 20.6288ZM367.898 20.6288C367.898 17.0686 365.591 14.6603 362.234 14.6603C358.877 14.6603 356.57 17.0686 356.57 20.6288C356.57 24.1891 358.877 26.5974 362.234 26.5974C365.591 26.5974 367.898 24.1891 367.898 20.6288Z" fill="white"/>
<path d="M388.353 11.2047H392.548V29.9481H388.353V22.4089H379.961V29.9481H375.765V11.2047H379.961V18.6393H388.353V11.2047Z" fill="white"/>
<path d="M401.569 29.9481V14.9743H395.066V11.2047H412.164V14.9743H405.66V29.9481H401.569Z" fill="white"/>
<path d="M430.205 19.477V29.9482H427.164L426.324 27.0163C425.38 28.587 423.387 30.3671 420.345 30.3671C416.569 30.3671 413.842 27.854 413.842 24.3985C413.842 20.943 416.569 18.5346 422.129 18.5346H426.219C426.01 16.1262 424.751 14.4508 422.443 14.4508C420.555 14.4508 419.296 15.498 418.667 16.6498L414.891 16.0215C415.835 12.7754 419.087 10.8906 422.653 10.8906C427.268 10.8906 430.205 14.032 430.205 19.477ZM426.115 21.7807H422.233C419.087 21.7807 418.038 22.8278 418.038 24.1891C418.038 25.7597 419.296 26.8069 421.394 26.8069C424.122 26.8069 426.115 24.8173 426.115 21.7807Z" fill="white"/>
<path d="M446.359 29.9481L439.856 22.5136H438.807V29.9481H434.611V11.2047H438.807V18.4298H439.856L446.149 11.2047H451.079L443.212 20.2099L451.814 29.9481H446.359Z" fill="white"/>
<path d="M459.366 29.9481V14.9743H452.863V11.2047H469.961V14.9743H463.457V29.9481H459.366Z" fill="white"/>
<path d="M490.939 21.7807H475.835C476.254 24.7126 478.352 26.5974 481.499 26.5974C483.702 26.5974 485.38 25.655 486.324 24.2938L490.205 24.922C488.841 28.4823 485.17 30.3671 481.184 30.3671C475.52 30.3671 471.429 26.2833 471.429 20.6288C471.429 14.9744 475.52 10.8906 481.184 10.8906C486.848 10.8906 490.939 14.9744 490.939 20.4194C491.044 20.943 490.939 21.3618 490.939 21.7807ZM476.149 18.5346H486.534C485.799 16.2309 483.911 14.5555 481.289 14.5555C478.772 14.4508 476.779 16.1262 476.149 18.5346Z" fill="white"/>
<path fill-rule="evenodd" clip-rule="evenodd" d="M264.457 2.81177C261.64 5.62355 261.64 10.149 261.64 19.2V20.8C261.64 29.851 261.64 34.3765 264.457 37.1882C267.273 40 271.807 40 280.873 40H282.476C291.543 40 296.076 40 298.893 37.1882C301.71 34.3765 301.71 29.851 301.71 20.8V19.2C301.71 10.149 301.71 5.62355 298.893 2.81177C296.076 0 291.543 0 282.476 0H280.873C271.807 0 267.273 0 264.457 2.81177ZM268.402 12.1667C268.619 22.5667 273.828 28.8167 282.96 28.8167H283.478V22.8667C286.834 23.2001 289.372 25.6501 290.39 28.8167H295.132C293.829 24.0834 290.407 21.4667 288.27 20.4667C290.407 19.2334 293.412 16.2334 294.13 12.1667H289.822C288.887 15.4667 286.116 18.4667 283.478 18.7501V12.1667H279.17V23.7001C276.499 23.0334 273.127 19.8001 272.976 12.1667H268.402Z" fill="white"/>
</svg>
