<svg width="33" height="28" viewBox="0 0 33 28" fill="none" xmlns="http://www.w3.org/2000/svg">
<path d="M31.5 9.83333H1.5M19.5 21.6389L23.25 18.1667L19.5 14.6944M13.5 14.6944L9.75 18.1667L13.5 21.6389M1.5 8.16667L1.5 19.8333C1.5 22.1669 1.5 23.3337 1.99047 24.225C2.4219 25.009 3.11031 25.6464 3.95704 26.0459C4.91965 26.5 6.17976 26.5 8.7 26.5H24.3C26.8202 26.5 28.0804 26.5 29.043 26.0459C29.8897 25.6464 30.5781 25.009 31.0095 24.225C31.5 23.3337 31.5 22.1669 31.5 19.8333V8.16667C31.5 5.83312 31.5 4.66634 31.0095 3.77504C30.5781 2.99103 29.8897 2.35361 29.043 1.95414C28.0804 1.5 26.8202 1.5 24.3 1.5L8.7 1.5C6.17976 1.5 4.91965 1.5 3.95704 1.95414C3.11031 2.35361 2.4219 2.99103 1.99047 3.77504C1.5 4.66634 1.5 5.83312 1.5 8.16667Z" stroke="#FF3985" stroke-width="3" stroke-linecap="round" stroke-linejoin="round"/>
</svg>
