<svg width="21" height="28" viewBox="0 0 21 28" fill="none" xmlns="http://www.w3.org/2000/svg">
<path d="M10.5 20.875H10.5129M5.61429 26.5H15.3857C16.8258 26.5 17.5459 26.5 18.096 26.2275C18.5798 25.9878 18.9732 25.6054 19.2197 25.135C19.5 24.6002 19.5 23.9001 19.5 22.5V5.5C19.5 4.09987 19.5 3.3998 19.2197 2.86502C18.9732 2.39462 18.5798 2.01217 18.096 1.77248C17.5459 1.5 16.8258 1.5 15.3857 1.5H5.61429C4.17415 1.5 3.45408 1.5 2.90402 1.77248C2.42018 2.01217 2.0268 2.39462 1.78027 2.86502C1.5 3.3998 1.5 4.09987 1.5 5.5V22.5C1.5 23.9001 1.5 24.6002 1.78027 25.135C2.0268 25.6054 2.42018 25.9878 2.90402 26.2275C3.45408 26.5 4.17415 26.5 5.61429 26.5ZM11.1429 20.875C11.1429 21.2202 10.855 21.5 10.5 21.5C10.145 21.5 9.85714 21.2202 9.85714 20.875C9.85714 20.5298 10.145 20.25 10.5 20.25C10.855 20.25 11.1429 20.5298 11.1429 20.875Z" stroke="white" stroke-width="3" stroke-linecap="round" stroke-linejoin="round"/>
</svg>
