<svg width="144" height="26" viewBox="0 0 144 26" fill="none" xmlns="http://www.w3.org/2000/svg">
<path fill-rule="evenodd" clip-rule="evenodd" d="M1.82682 1.82765C0 3.65531 0 6.59687 0 12.48V13.52C0 19.4031 0 22.3447 1.82682 24.1723C3.65363 26 6.59385 26 12.4743 26H13.5138C19.3942 26 22.3345 26 24.1613 24.1723C25.9881 22.3447 25.9881 19.4031 25.9881 13.52V12.48C25.9881 6.59687 25.9881 3.65531 24.1613 1.82765C22.3345 0 19.3942 0 13.5138 0H12.4743C6.59385 0 3.65363 0 1.82682 1.82765ZM4.38553 7.90839C4.5263 14.6684 7.90472 18.7309 13.8278 18.7309H14.1636V14.8634C16.3401 15.08 17.9859 16.6725 18.6464 18.7309H21.7218C20.8771 15.6542 18.6572 13.9534 17.2712 13.3034C18.6572 12.5017 20.6063 10.5517 21.072 7.90839H18.2782C17.6718 10.0534 15.8745 12.0034 14.1636 12.1875V7.90839H11.3698V15.405C9.63724 14.9717 7.44995 12.8701 7.35249 7.90839H4.38553Z" fill="white"/>
<path d="M47.6045 13.4028C47.6045 13.6321 47.5892 13.9148 47.5587 14.251H37.9808C38.103 15.1833 38.4849 15.9321 39.1265 16.4976C39.768 17.0478 40.5853 17.3229 41.5782 17.3229C42.2504 17.3229 42.8537 17.193 43.3884 16.9331C43.9383 16.6733 44.3584 16.3218 44.6487 15.8786L47.1233 16.2913C46.6956 17.3916 45.9547 18.2398 44.9007 18.8359C43.862 19.4319 42.701 19.7299 41.4178 19.7299C40.2263 19.7299 39.157 19.4701 38.2099 18.9505C37.2781 18.4156 36.5448 17.682 36.0102 16.7497C35.4908 15.8022 35.2311 14.7324 35.2311 13.5404C35.2311 12.3483 35.4908 11.2861 36.0102 10.3539C36.5448 9.40636 37.2781 8.67279 38.2099 8.15317C39.157 7.61828 40.2263 7.35083 41.4178 7.35083C42.6093 7.35083 43.671 7.61828 44.6028 8.15317C45.5499 8.67279 46.2832 9.39872 46.8025 10.331C47.3372 11.2479 47.6045 12.2719 47.6045 13.4028ZM41.4178 9.64325C40.6235 9.64325 39.9284 9.87249 39.3327 10.331C38.7522 10.7895 38.355 11.4084 38.1412 12.1878H44.7403C44.5112 11.4237 44.0987 10.8124 43.503 10.3539C42.9225 9.88013 42.2274 9.64325 41.4178 9.64325Z" fill="white"/>
<path d="M54.7905 19.7299C53.6753 19.7299 52.6748 19.4701 51.7888 18.9505C50.9028 18.4156 50.2077 17.682 49.7036 16.7497C49.2148 15.8022 48.9704 14.7324 48.9704 13.5404C48.9704 12.3483 49.2148 11.2861 49.7036 10.3539C50.2077 9.40636 50.9028 8.67279 51.7888 8.15317C52.6748 7.61828 53.6753 7.35083 54.7905 7.35083C55.7528 7.35083 56.6083 7.5495 57.3568 7.94686C58.1053 8.32893 58.7164 8.81034 59.1899 9.39108V3.33909H61.825V19.5007H59.8544L59.3045 17.575C58.8156 18.1711 58.1893 18.683 57.4255 19.1109C56.6618 19.5236 55.7834 19.7299 54.7905 19.7299ZM55.4321 17.3687C56.5472 17.3687 57.4485 17.0172 58.1359 16.3142C58.8386 15.5959 59.1899 14.6713 59.1899 13.5404C59.1899 12.4094 58.8386 11.4925 58.1359 10.7895C57.4485 10.0712 56.5472 9.71202 55.4321 9.71202C54.3322 9.71202 53.4386 10.0712 52.7512 10.7895C52.0637 11.4925 51.72 12.4094 51.72 13.5404C51.72 14.6713 52.0637 15.5959 52.7512 16.3142C53.4386 17.0172 54.3322 17.3687 55.4321 17.3687Z" fill="white"/>
<path d="M69.2723 19.7299C68.4321 19.7299 67.6683 19.5159 66.9809 19.088C66.3088 18.6601 65.7741 18.0717 65.377 17.3229C64.9951 16.574 64.8041 15.7258 64.8041 14.7783V7.58007H67.4392V14.4803C67.4392 15.3361 67.676 16.0315 68.1495 16.5664C68.6383 17.1013 69.257 17.3687 70.0055 17.3687C70.7693 17.3687 71.4033 17.1013 71.9074 16.5664C72.4115 16.0162 72.6635 15.3208 72.6635 14.4803V7.58007H75.2986V19.5007H73.328L72.801 17.7126C72.4191 18.3392 71.915 18.8359 71.2887 19.2026C70.6624 19.5541 69.9902 19.7299 69.2723 19.7299Z" fill="white"/>
<path d="M83.7998 19.7299C82.6082 19.7299 81.5389 19.4701 80.5918 18.9505C79.6447 18.4156 78.9039 17.682 78.3692 16.7497C77.8498 15.8022 77.5901 14.7324 77.5901 13.5404C77.5901 12.3483 77.8498 11.2861 78.3692 10.3539C78.9039 9.40636 79.6447 8.67279 80.5918 8.15317C81.5389 7.61828 82.6082 7.35083 83.7998 7.35083C85.1135 7.35083 86.2744 7.67941 87.2826 8.33657C88.3061 8.97845 89.0317 9.89541 89.4594 11.0875L86.9848 11.5001C86.7251 10.9805 86.3203 10.5602 85.7703 10.2393C85.2357 9.91834 84.6323 9.75787 83.9602 9.75787C82.8908 9.75787 82.0201 10.1094 81.348 10.8124C80.6759 11.5154 80.3398 12.4247 80.3398 13.5404C80.3398 14.656 80.6759 15.5653 81.348 16.2683C82.0201 16.9713 82.8908 17.3229 83.9602 17.3229C84.6628 17.3229 85.2891 17.1624 85.8391 16.8414C86.389 16.5052 86.8014 16.0697 87.0764 15.5348L89.5511 15.9474C89.1234 17.1547 88.3825 18.087 87.3285 18.7442C86.2744 19.4013 85.0982 19.7299 83.7998 19.7299Z" fill="white"/>
<path d="M96.248 7.35083C97.7756 7.35083 98.9747 7.83224 99.8454 8.79505C100.731 9.74259 101.174 11.0798 101.174 12.8068V19.5007H99.2268L98.6768 17.6209C98.3408 18.1863 97.8443 18.683 97.1874 19.1109C96.5306 19.5236 95.7515 19.7299 94.8502 19.7299C94.0559 19.7299 93.3379 19.5694 92.6964 19.2485C92.07 18.9275 91.5812 18.4767 91.2299 17.896C90.8785 17.3152 90.7029 16.6581 90.7029 15.9245C90.7029 14.7936 91.1459 13.8919 92.0319 13.2194C92.9331 12.5317 94.2392 12.1878 95.9501 12.1878H98.5164C98.4553 11.3931 98.2109 10.7665 97.7832 10.308C97.3708 9.83428 96.8132 9.5974 96.1105 9.5974C95.5453 9.5974 95.0565 9.73494 94.644 10.01C94.2316 10.2851 93.9261 10.6213 93.7275 11.0187L91.2986 10.6061C91.5889 9.5974 92.1846 8.80269 93.0859 8.22195C94.0024 7.6412 95.0565 7.35083 96.248 7.35083ZM95.4689 17.5062C96.3855 17.5062 97.1263 17.2082 97.6915 16.6122C98.2567 16.0162 98.5393 15.2291 98.5393 14.251H96.0418C94.2545 14.251 93.3609 14.7706 93.3609 15.8099C93.3609 16.3295 93.5518 16.7421 93.9337 17.0478C94.3156 17.3534 94.8273 17.5062 95.4689 17.5062Z" fill="white"/>
<path d="M111.136 17.2082L110.907 19.5007H108.685C107.386 19.5007 106.401 19.195 105.729 18.5837C105.057 17.9571 104.72 17.0554 104.72 15.8786V9.87249H102.773V7.58007H104.72L105.385 4.14144H107.356V7.58007H110.907V9.87249H107.356V15.8786C107.356 16.765 107.799 17.2082 108.685 17.2082H111.136Z" fill="white"/>
<path d="M115.957 19.5007H113.322V7.58007H115.957V19.5007ZM114.651 5.88368C114.162 5.88368 113.765 5.73849 113.46 5.44812C113.154 5.14246 113.001 4.75275 113.001 4.27898C113.001 3.80522 113.154 3.41551 113.46 3.10985C113.78 2.8042 114.178 2.65137 114.651 2.65137C115.125 2.65137 115.514 2.8042 115.82 3.10985C116.125 3.41551 116.278 3.80522 116.278 4.27898C116.278 4.75275 116.125 5.14246 115.82 5.44812C115.514 5.73849 115.125 5.88368 114.651 5.88368Z" fill="white"/>
<path d="M124.73 19.7299C123.508 19.7299 122.409 19.4701 121.431 18.9505C120.468 18.4156 119.712 17.682 119.162 16.7497C118.628 15.8022 118.36 14.7324 118.36 13.5404C118.36 12.3483 118.628 11.2861 119.162 10.3539C119.712 9.40636 120.468 8.67279 121.431 8.15317C122.409 7.61828 123.508 7.35083 124.73 7.35083C125.952 7.35083 127.045 7.61828 128.007 8.15317C128.985 8.67279 129.741 9.40636 130.276 10.3539C130.825 11.2861 131.1 12.3483 131.1 13.5404C131.1 14.7324 130.825 15.8022 130.276 16.7497C129.741 17.682 128.985 18.4156 128.007 18.9505C127.045 19.4701 125.952 19.7299 124.73 19.7299ZM124.73 17.3229C125.8 17.3229 126.67 16.979 127.343 16.2913C128.015 15.5883 128.351 14.6713 128.351 13.5404C128.351 12.4094 128.015 11.5001 127.343 10.8124C126.67 10.1094 125.8 9.75787 124.73 9.75787C123.661 9.75787 122.79 10.1094 122.118 10.8124C121.446 11.5001 121.11 12.4094 121.11 13.5404C121.11 14.6713 121.446 15.5883 122.118 16.2913C122.79 16.979 123.661 17.3229 124.73 17.3229Z" fill="white"/>
<path d="M133.391 19.5007V7.58007H135.362L135.889 9.36816C136.271 8.74156 136.775 8.25251 137.401 7.90101C138.043 7.53422 138.73 7.35083 139.463 7.35083C140.319 7.35083 141.09 7.56479 141.778 7.9927C142.465 8.42062 143.007 9.00901 143.405 9.75787C143.802 10.5067 144 11.3549 144 12.3025V19.5007H141.365V12.6005C141.365 11.7446 141.121 11.0493 140.632 10.5144C140.143 9.97947 139.517 9.71202 138.753 9.71202C137.959 9.71202 137.302 9.98711 136.782 10.5373C136.278 11.0722 136.026 11.7599 136.026 12.6005V19.5007H133.391Z" fill="white"/>
</svg>
