<svg width="222" height="40" viewBox="0 0 222 40" fill="none" xmlns="http://www.w3.org/2000/svg">
<path fill-rule="evenodd" clip-rule="evenodd" d="M2.81177 2.81177C0 5.62355 0 10.149 0 19.2V20.8C0 29.851 0 34.3765 2.81177 37.1882C5.62355 40 10.149 40 19.2 40H20.8C29.851 40 34.3765 40 37.1882 37.1882C40 34.3765 40 29.851 40 20.8V19.2C40 10.149 40 5.62355 37.1882 2.81177C34.3765 0 29.851 0 20.8 0H19.2C10.149 0 5.62355 0 2.81177 2.81177ZM6.75006 12.1667C6.96673 22.5667 12.1667 28.8167 21.2833 28.8167H21.8001V22.8667C25.1501 23.2001 27.6833 25.6501 28.6999 28.8167H33.4334C32.1334 24.0834 28.7166 21.4667 26.5832 20.4667C28.7166 19.2334 31.7166 16.2334 32.4332 12.1667H28.1331C27.1998 15.4667 24.4334 18.4667 21.8001 18.7501V12.1667H17.5V23.7001C14.8333 23.0334 11.4667 19.8001 11.3167 12.1667H6.75006Z" fill="white"/>
<path d="M73.2713 20.6196C73.2713 20.9723 73.2478 21.4072 73.2007 21.9245H58.4587C58.6468 23.3587 59.2346 24.5108 60.2221 25.3808C61.2096 26.2272 62.4675 26.6504 63.9958 26.6504C65.0303 26.6504 65.9591 26.4506 66.782 26.0509C67.6284 25.6512 68.275 25.1104 68.7217 24.4285L72.5307 25.0634C71.8723 26.7562 70.732 28.0611 69.1097 28.9781C67.5108 29.8951 65.7239 30.3536 63.7489 30.3536C61.915 30.3536 60.2691 29.9539 58.8114 29.1545C57.3772 28.3315 56.2486 27.203 55.4257 25.7687C54.6263 24.311 54.2266 22.6651 54.2266 20.8312C54.2266 18.9973 54.6263 17.3632 55.4257 15.929C56.2486 14.4712 57.3772 13.3426 58.8114 12.5432C60.2691 11.7203 61.915 11.3088 63.7489 11.3088C65.5829 11.3088 67.2169 11.7203 68.6512 12.5432C70.1089 13.3426 71.2375 14.4595 72.0369 15.8937C72.8598 17.3044 73.2713 18.8797 73.2713 20.6196ZM63.7489 14.8356C62.5263 14.8356 61.4565 15.1883 60.5395 15.8937C59.6461 16.599 59.0348 17.5513 58.7056 18.7504H68.8628C68.5101 17.5748 67.8753 16.6343 66.9583 15.929C66.0649 15.2001 64.9951 14.8356 63.7489 14.8356Z" fill="white"/>
<path d="M84.3317 30.3536C82.6153 30.3536 81.0752 29.9539 79.7115 29.1545C78.3479 28.3315 77.2781 27.203 76.5022 25.7687C75.7498 24.311 75.3736 22.6651 75.3736 20.8312C75.3736 18.9973 75.7498 17.3632 76.5022 15.929C77.2781 14.4712 78.3479 13.3426 79.7115 12.5432C81.0752 11.7203 82.6153 11.3088 84.3317 11.3088C85.8129 11.3088 87.1296 11.6145 88.2817 12.2258C89.4338 12.8136 90.3742 13.5542 91.1031 14.4477V5.13694H95.1589V30.0009H92.1259L91.2795 27.0384C90.5271 27.9553 89.5631 28.743 88.3875 29.4013C87.2119 30.0362 85.8599 30.3536 84.3317 30.3536ZM85.3192 26.721C87.0355 26.721 88.4227 26.1802 89.4808 25.0986C90.5623 23.9936 91.1031 22.5711 91.1031 20.8312C91.1031 19.0913 90.5623 17.6806 89.4808 16.599C88.4227 15.494 87.0355 14.9414 85.3192 14.9414C83.6263 14.9414 82.2508 15.494 81.1928 16.599C80.1348 17.6806 79.6057 19.0913 79.6057 20.8312C79.6057 22.5711 80.1348 23.9936 81.1928 25.0986C82.2508 26.1802 83.6263 26.721 85.3192 26.721Z" fill="white"/>
<path d="M106.622 30.3536C105.328 30.3536 104.153 30.0244 103.095 29.3661C102.06 28.7077 101.237 27.8025 100.626 26.6504C100.038 25.4983 99.7443 24.1934 99.7443 22.7357V11.6615H103.8V22.2772C103.8 23.5939 104.165 24.6637 104.893 25.4866C105.646 26.3095 106.598 26.721 107.75 26.721C108.926 26.721 109.902 26.3095 110.677 25.4866C111.453 24.6401 111.841 23.5704 111.841 22.2772V11.6615H115.897V30.0009H112.864L112.053 27.25C111.465 28.214 110.689 28.9781 109.725 29.5424C108.761 30.0832 107.727 30.3536 106.622 30.3536Z" fill="white"/>
<path d="M128.982 30.3536C127.148 30.3536 125.502 29.9539 124.044 29.1545C122.587 28.3315 121.446 27.203 120.623 25.7687C119.824 24.311 119.424 22.6651 119.424 20.8312C119.424 18.9973 119.824 17.3632 120.623 15.929C121.446 14.4712 122.587 13.3426 124.044 12.5432C125.502 11.7203 127.148 11.3088 128.982 11.3088C131.004 11.3088 132.791 11.8144 134.343 12.8254C135.918 13.8129 137.035 15.2236 137.693 17.0575L133.884 17.6924C133.484 16.8929 132.861 16.2464 132.015 15.7526C131.192 15.2589 130.263 15.012 129.229 15.012C127.583 15.012 126.243 15.5528 125.208 16.6343C124.174 17.7159 123.656 19.1148 123.656 20.8312C123.656 22.5476 124.174 23.9465 125.208 25.0281C126.243 26.1096 127.583 26.6504 129.229 26.6504C130.31 26.6504 131.274 26.4035 132.121 25.9098C132.967 25.3925 133.602 24.7224 134.025 23.8995L137.834 24.5343C137.176 26.3918 136.035 27.826 134.413 28.837C132.791 29.8481 130.98 30.3536 128.982 30.3536Z" fill="white"/>
<path d="M148.142 11.3088C150.493 11.3088 152.339 12.0495 153.679 13.5307C155.042 14.9885 155.724 17.0458 155.724 19.7026V30.0009H152.727L151.88 27.1089C151.363 27.9789 150.599 28.743 149.588 29.4013C148.577 30.0362 147.378 30.3536 145.99 30.3536C144.768 30.3536 143.663 30.1067 142.675 29.6129C141.711 29.1192 140.959 28.4256 140.418 27.5321C139.877 26.6387 139.607 25.6277 139.607 24.4991C139.607 22.7592 140.289 21.372 141.652 20.3375C143.04 19.2794 145.05 18.7504 147.683 18.7504H151.633C151.539 17.5278 151.163 16.5638 150.505 15.8584C149.87 15.1295 149.012 14.7651 147.93 14.7651C147.06 14.7651 146.308 14.9767 145.673 15.3999C145.038 15.8231 144.568 16.3404 144.262 16.9517L140.524 16.3169C140.971 14.7651 141.887 13.5425 143.275 12.649C144.685 11.7556 146.308 11.3088 148.142 11.3088ZM146.943 26.9326C148.353 26.9326 149.494 26.4741 150.364 25.5571C151.233 24.6401 151.668 23.4293 151.668 21.9245H147.824C145.073 21.9245 143.698 22.7239 143.698 24.3227C143.698 25.1221 143.992 25.757 144.58 26.2272C145.167 26.6974 145.955 26.9326 146.943 26.9326Z" fill="white"/>
<path d="M171.057 26.4741L170.705 30.0009H167.284C165.285 30.0009 163.769 29.5306 162.734 28.5902C161.7 27.6262 161.182 26.239 161.182 24.4285V15.1883H158.185V11.6615H161.182L162.205 6.37132H165.238V11.6615H170.705V15.1883H165.238V24.4285C165.238 25.7922 165.92 26.4741 167.284 26.4741H171.057Z" fill="white"/>
<path d="M178.477 30.0009H174.422V11.6615H178.477V30.0009ZM176.467 9.05169C175.715 9.05169 175.103 8.82833 174.633 8.3816C174.163 7.91136 173.928 7.3118 173.928 6.58293C173.928 5.85406 174.163 5.2545 174.633 4.78426C175.127 4.31402 175.738 4.0789 176.467 4.0789C177.196 4.0789 177.796 4.31402 178.266 4.78426C178.736 5.2545 178.971 5.85406 178.971 6.58293C178.971 7.3118 178.736 7.91136 178.266 8.3816C177.796 8.82833 177.196 9.05169 176.467 9.05169Z" fill="white"/>
<path d="M191.981 30.3536C190.1 30.3536 188.407 29.9539 186.902 29.1545C185.421 28.3315 184.257 27.203 183.411 25.7687C182.588 24.311 182.176 22.6651 182.176 20.8312C182.176 18.9973 182.588 17.3632 183.411 15.929C184.257 14.4712 185.421 13.3426 186.902 12.5432C188.407 11.7203 190.1 11.3088 191.981 11.3088C193.862 11.3088 195.543 11.7203 197.024 12.5432C198.529 13.3426 199.693 14.4712 200.516 15.929C201.362 17.3632 201.785 18.9973 201.785 20.8312C201.785 22.6651 201.362 24.311 200.516 25.7687C199.693 27.203 198.529 28.3315 197.024 29.1545C195.543 29.9539 193.862 30.3536 191.981 30.3536ZM191.981 26.6504C193.627 26.6504 194.967 26.1214 196.001 25.0634C197.036 23.9818 197.553 22.5711 197.553 20.8312C197.553 19.0913 197.036 17.6924 196.001 16.6343C194.967 15.5528 193.627 15.012 191.981 15.012C190.335 15.012 188.995 15.5528 187.96 16.6343C186.926 17.6924 186.409 19.0913 186.409 20.8312C186.409 22.5711 186.926 23.9818 187.96 25.0634C188.995 26.1214 190.335 26.6504 191.981 26.6504Z" fill="white"/>
<path d="M205.311 30.0009V11.6615H208.344L209.156 14.4124C209.743 13.4484 210.519 12.6961 211.483 12.1553C212.471 11.591 213.529 11.3088 214.657 11.3088C215.974 11.3088 217.161 11.638 218.219 12.2963C219.277 12.9547 220.112 13.8599 220.723 15.012C221.335 16.1641 221.64 17.469 221.64 18.9267V30.0009H217.585V19.3852C217.585 18.0685 217.208 16.9987 216.456 16.1758C215.704 15.3529 214.74 14.9414 213.564 14.9414C212.341 14.9414 211.33 15.3647 210.531 16.2111C209.755 17.034 209.367 18.0921 209.367 19.3852V30.0009H205.311Z" fill="white"/>
</svg>
