<svg width="149" height="26" viewBox="0 0 149 26" fill="none" xmlns="http://www.w3.org/2000/svg">
<path d="M45.1211 16.1304C45.1211 18.1043 43.2864 19.5336 40.7041 19.5336H34.6563V7.28227H40.5003C43.0145 7.28227 44.7813 8.64352 44.7813 10.5493C44.7813 11.8425 44.1018 12.6592 43.0825 13.1357C44.1697 13.5441 45.1211 14.6331 45.1211 16.1304ZM37.3065 9.52834V12.1828H40.4323C41.3837 12.1828 41.9952 11.6383 41.9952 10.8896C41.9952 10.1409 41.3157 9.52834 40.4323 9.52834H37.3065ZM40.7041 17.2875C41.7234 17.2875 42.4709 16.6749 42.4709 15.7901C42.4709 14.9053 41.7914 14.2927 40.7041 14.2927H37.3065V17.2875H40.7041Z" fill="white"/>
<path d="M55.1103 19.4655L50.8972 14.6331H50.2176V19.4655H47.4995V7.28227H50.2176V11.9786H50.8972L54.9744 7.28227H58.1682L53.0717 13.1357L58.6438 19.4655H55.1103Z" fill="white"/>
<path d="M58.6439 13.408C58.6439 9.73257 61.362 7.07812 65.1674 7.07812C68.9728 7.07812 71.6909 9.73257 71.6909 13.408C71.6909 17.0834 68.9728 19.7378 65.1674 19.7378C61.362 19.7378 58.6439 17.0834 58.6439 13.408ZM68.8369 13.408C68.8369 11.0938 67.3419 9.52839 65.1674 9.52839C62.9929 9.52839 61.4979 11.0938 61.4979 13.408C61.4979 15.7221 62.9929 17.2875 65.1674 17.2875C67.3419 17.2875 68.8369 15.7221 68.8369 13.408Z" fill="white"/>
<path d="M82.0878 7.28227H84.8059V19.4655H82.0878V14.565H76.6515V19.4655H73.9334V7.28227H76.6515V12.1147H82.0878V7.28227Z" fill="white"/>
<path d="M90.6498 19.4655V9.73253H86.4367V7.28227H97.5131V9.73253H93.3V19.4655H90.6498Z" fill="white"/>
<path d="M109.201 12.6593V19.4656H107.23L106.687 17.5598C106.075 18.5807 104.784 19.7378 102.814 19.7378C100.367 19.7378 98.6004 18.1043 98.6004 15.8582C98.6004 13.6122 100.367 12.0467 103.969 12.0467H106.619C106.483 10.4813 105.668 9.39226 104.173 9.39226C102.949 9.39226 102.134 10.0729 101.726 10.8216L99.2799 10.4132C99.8915 8.30326 101.998 7.07812 104.309 7.07812C107.298 7.07813 109.201 9.12001 109.201 12.6593ZM106.551 14.1567H104.037C101.998 14.1567 101.319 14.8373 101.319 15.7221C101.319 16.743 102.134 17.4237 103.493 17.4237C105.26 17.4237 106.551 16.1305 106.551 14.1567Z" fill="white"/>
<path d="M119.666 19.4655L115.453 14.6331H114.773V19.4655H112.055V7.28227H114.773V11.9786H115.453L119.53 7.28227H122.724L117.627 13.1357L123.2 19.4655H119.666Z" fill="white"/>
<path d="M128.092 19.4655V9.73253H123.879V7.28227H134.956V9.73253H130.742V19.4655H128.092Z" fill="white"/>
<path d="M148.546 14.1567H138.761C139.033 16.0624 140.392 17.2875 142.43 17.2875C143.857 17.2875 144.945 16.675 145.556 15.7902L148.07 16.1985C147.187 18.5127 144.809 19.7378 142.226 19.7378C138.557 19.7378 135.907 17.0834 135.907 13.408C135.907 9.73257 138.557 7.07812 142.226 7.07812C145.896 7.07812 148.546 9.73257 148.546 13.2718C148.614 13.6122 148.546 13.8844 148.546 14.1567ZM138.965 12.0467H145.692C145.216 10.5493 143.993 9.46032 142.294 9.46032C140.664 9.39226 139.372 10.4813 138.965 12.0467Z" fill="white"/>
<path fill-rule="evenodd" clip-rule="evenodd" d="M1.82471 1.82765C0 3.65531 0 6.59687 0 12.48V13.52C0 19.4031 0 22.3447 1.82471 24.1723C3.64943 26 6.58626 26 12.4599 26H13.4983C19.3719 26 22.3088 26 24.1335 24.1723C25.9582 22.3447 25.9582 19.4031 25.9582 13.52V12.48C25.9582 6.59687 25.9582 3.65531 24.1335 1.82765C22.3088 0 19.3719 0 13.4983 0H12.4599C6.58626 0 3.64943 0 1.82471 1.82765ZM4.38048 7.90839C4.52109 14.6684 7.89562 18.7309 13.8119 18.7309H14.1473V14.8634C16.3213 15.08 17.9652 16.6725 18.625 18.7309H21.6968C20.8531 15.6542 18.6357 13.9534 17.2513 13.3034C18.6357 12.5017 20.5826 10.5517 21.0477 7.90839H18.2571C17.6514 10.0534 15.8562 12.0034 14.1473 12.1875V7.90839H11.3567V15.405C9.62615 14.9717 7.44138 12.8701 7.34403 7.90839H4.38048Z" fill="white"/>
</svg>
